CSS Mono italic.ufo
<glyph name="exclam" format="1">
  <advance width="800"/>
  <unicode hex="0021"/>
  <outline>
    <contour>
      <point x="481" y="52" type="curve" smooth="yes"/>
      <point x="472" y="17"/>
      <point x="435" y="-12"/>
      <point x="400" y="-12" type="curve" smooth="yes"/>
      <point x="365" y="-12"/>
      <point x="344" y="17"/>
      <point x="353" y="52" type="curve" smooth="yes"/>
      <point x="363" y="87"/>
      <point x="399" y="116"/>
      <point x="434" y="116" type="curve" smooth="yes"/>
      <point x="469" y="116"/>
      <point x="491" y="87"/>
    </contour>
    <contour>
      <point x="630" y="608" type="curve"/>
      <point x="616" y="557"/>
      <point x="506" y="316"/>
      <point x="482" y="223" type="curve"/>
      <point x="445" y="223" type="line"/>
      <point x="470" y="316"/>
      <point x="488" y="557"/>
      <point x="502" y="608" type="curve" smooth="yes"/>
      <point x="512" y="643"/>
      <point x="548" y="672"/>
      <point x="583" y="672" type="curve" smooth="yes"/>
      <point x="618" y="672"/>
      <point x="640" y="643"/>
    </contour>
  </outline>
</glyph>
<glyph name="quotedbl" format="1">
  <advance width="800"/>
  <unicode hex="0022"/>
  <outline>
    <contour>
      <point x="418" y="641" type="line"/>
      <point x="425" y="669"/>
      <point x="408" y="692"/>
      <point x="379" y="692" type="curve" smooth="yes"/>
      <point x="351" y="692"/>
      <point x="317" y="669"/>
      <point x="315" y="641" type="curve" smooth="yes"/>
      <point x="297" y="452" type="line" smooth="yes"/>
      <point x="333" y="452" type="line" smooth="yes"/>
    </contour>
    <contour>
      <point x="588" y="641" type="line"/>
      <point x="595" y="669"/>
      <point x="578" y="692"/>
      <point x="549" y="692" type="curve" smooth="yes"/>
      <point x="521" y="692"/>
      <point x="487" y="669"/>
      <point x="485" y="641" type="curve" smooth="yes"/>
      <point x="467" y="452" type="line" smooth="yes"/>
      <point x="503" y="452" type="line" smooth="yes"/>
    </contour>
  </outline>
</glyph>
<glyph name="dollar" format="1">
  <advance width="800"/>
  <unicode hex="0024"/>
  <outline>
    <contour>
      <point x="266" y="402" type="curve" smooth="yes"/>
      <point x="239" y="302"/>
      <point x="386" y="281"/>
      <point x="514" y="246" type="curve" smooth="yes"/>
      <point x="617" y="218"/>
      <point x="710" y="200"/>
      <point x="690" y="126" type="curve" smooth="yes"/>
      <point x="672" y="59"/>
      <point x="583" y="20"/>
      <point x="489" y="20" type="curve" smooth="yes"/>
      <point x="377" y="20"/>
      <point x="262" y="79"/>
      <point x="235" y="213" type="curve"/>
      <point x="198" y="213" type="line" smooth="yes"/>
      <point x="141" y="2" type="line" smooth="yes"/>
      <point x="174" y="2" type="line"/>
      <point x="223" y="60" type="line"/>
      <point x="313" y="8"/>
      <point x="370" y="-12"/>
      <point x="450" y="-12" type="curve" smooth="yes"/>
      <point x="606" y="-12"/>
      <point x="758" y="38"/>
      <point x="791" y="164" type="curve" smooth="yes"/>
      <point x="819" y="267"/>
      <point x="693" y="286"/>
      <point x="570" y="316" type="curve" smooth="yes"/>
      <point x="456" y="343"/>
      <point x="349" y="360"/>
      <point x="368" y="432" type="curve" smooth="yes"/>
      <point x="391" y="518"/>
      <point x="484" y="544"/>
      <point x="569" y="544" type="curve" smooth="yes"/>
      <point x="677" y="544"/>
      <point x="784" y="483"/>
      <point x="794" y="358" type="curve"/>
      <point x="823" y="358" type="line" smooth="yes"/>
      <point x="877" y="557" type="line" smooth="yes"/>
      <point x="851" y="557" type="line"/>
      <point x="795" y="509" type="line"/>
      <point x="732" y="558"/>
      <point x="677" y="580"/>
      <point x="593" y="580" type="curve" smooth="yes"/>
      <point x="454" y="580"/>
      <point x="301" y="530"/>
    </contour>
    <contour>
      <point x="372" y="-170" type="line" smooth="yes"/>
      <point x="425" y="-170" type="line" smooth="yes"/>
      <point x="668" y="738" type="line" smooth="yes"/>
      <point x="615" y="738" type="line" smooth="yes"/>
    </contour>
  </outline>
</glyph>
<glyph name="percent" format="1">
  <advance width="800"/>
  <unicode hex="0025"/>
  <outline>
    <contour>
      <point x="688" y="117" type="curve" smooth="yes"/>
      <point x="674" y="66"/>
      <point x="624" y="15"/>
      <point x="579" y="15" type="curve" smooth="yes"/>
      <point x="515" y="15"/>
      <point x="487" y="62"/>
      <point x="506" y="133" type="curve" smooth="yes"/>
      <point x="520" y="184"/>
      <point x="569" y="235"/>
      <point x="614" y="235" type="curve" smooth="yes"/>
      <point x="678" y="235"/>
      <point x="707" y="188"/>
    </contour>
    <contour>
      <point x="434" y="116" type="curve" smooth="yes"/>
      <point x="416" y="46"/>
      <point x="471" y="-12"/>
      <point x="541" y="-12" type="curve" smooth="yes"/>
      <point x="636" y="-12"/>
      <point x="734" y="39"/>
      <point x="759" y="134" type="curve" smooth="yes"/>
      <point x="778" y="204"/>
      <point x="722" y="262"/>
      <point x="652" y="262" type="curve" smooth="yes"/>
      <point x="557" y="262"/>
      <point x="460" y="211"/>
    </contour>
    <contour>
      <point x="477" y="527" type="curve" smooth="yes"/>
      <point x="464" y="476"/>
      <point x="414" y="425"/>
      <point x="369" y="425" type="curve" smooth="yes"/>
      <point x="305" y="425"/>
      <point x="277" y="472"/>
      <point x="296" y="543" type="curve" smooth="yes"/>
      <point x="309" y="594"/>
      <point x="359" y="645"/>
      <point x="404" y="645" type="curve" smooth="yes"/>
      <point x="468" y="645"/>
      <point x="496" y="598"/>
    </contour>
    <contour>
      <point x="224" y="526" type="curve" smooth="yes"/>
      <point x="205" y="456"/>
      <point x="261" y="398"/>
      <point x="331" y="398" type="curve" smooth="yes"/>
      <point x="426" y="398"/>
      <point x="524" y="449"/>
      <point x="549" y="544" type="curve" smooth="yes"/>
      <point x="568" y="614"/>
      <point x="512" y="672"/>
      <point x="442" y="672" type="curve" smooth="yes"/>
      <point x="347" y="672"/>
      <point x="250" y="621"/>
    </contour>
    <contour>
      <point x="191" y="0" type="line" smooth="yes"/>
      <point x="113" y="0" type="line" smooth="yes"/>
      <point x="792" y="660" type="line" smooth="yes"/>
      <point x="870" y="660" type="line" smooth="yes"/>
    </contour>
  </outline>
</glyph>
<glyph name="ampersand" format="1">
  <advance width="800"/>
  <unicode hex="0026"/>
  <outline>
    <contour>
      <point x="736" y="319" type="curve" smooth="yes"/>
      <point x="680" y="113"/>
      <point x="474" y="-12"/>
      <point x="317" y="-12" type="curve" smooth="yes"/>
      <point x="151" y="-12"/>
      <point x="90" y="87"/>
      <point x="117" y="189" type="curve" smooth="yes"/>
      <point x="139" y="273"/>
      <point x="224" y="360"/>
      <point x="357" y="392" type="curve"/>
      <point x="367" y="372" type="line"/>
      <point x="280" y="342"/>
      <point x="228" y="279"/>
      <point x="211" y="215" type="curve" smooth="yes"/>
      <point x="185" y="120"/>
      <point x="235" y="22"/>
      <point x="356" y="22" type="curve" smooth="yes"/>
      <point x="453" y="22"/>
      <point x="608" y="132"/>
      <point x="658" y="319" type="curve" smooth="yes"/>
      <point x="665" y="348"/>
      <point x="645" y="369"/>
      <point x="604" y="377" type="curve"/>
      <point x="609" y="395" type="line"/>
      <point x="831" y="395" type="line"/>
      <point x="826" y="377" type="line"/>
      <point x="781" y="369"/>
      <point x="743" y="348"/>
    </contour>
    <contour>
      <point x="593" y="0"/>
      <point x="586" y="23"/>
      <point x="582" y="32" type="curve" smooth="yes"/>
      <point x="485" y="219"/>
      <point x="238" y="305"/>
      <point x="287" y="488" type="curve" smooth="yes"/>
      <point x="320" y="611"/>
      <point x="449" y="672"/>
      <point x="555" y="672" type="curve" smooth="yes"/>
      <point x="645" y="672"/>
      <point x="718" y="627"/>
      <point x="694" y="537" type="curve" smooth="yes"/>
      <point x="688" y="513"/>
      <point x="663" y="486"/>
      <point x="632" y="486" type="curve" smooth="yes"/>
      <point x="598" y="486"/>
      <point x="554" y="503"/>
      <point x="560" y="524" type="curve" smooth="yes"/>
      <point x="568" y="557"/>
      <point x="598" y="570"/>
      <point x="584" y="589" type="curve" smooth="yes"/>
      <point x="566" y="615"/>
      <point x="536" y="630"/>
      <point x="509" y="630" type="curve" smooth="yes"/>
      <point x="458" y="630"/>
      <point x="403" y="590"/>
      <point x="385" y="521" type="curve" smooth="yes"/>
      <point x="339" y="349"/>
      <point x="537" y="302"/>
      <point x="670" y="77" type="curve" smooth="yes"/>
      <point x="685" y="52"/>
      <point x="704" y="26"/>
      <point x="745" y="18" type="curve"/>
      <point x="740" y="0" type="line" smooth="yes"/>
      <point x="624" y="0" type="line"/>
    </contour>
  </outline>
</glyph>
<glyph name="quotesingle" format="1">
  <advance width="800"/>
  <unicode hex="0027"/>
  <outline>
    <contour>
      <point x="503" y="641" type="line"/>
      <point x="510" y="669"/>
      <point x="493" y="692"/>
      <point x="464" y="692" type="curve" smooth="yes"/>
      <point x="436" y="692"/>
      <point x="402" y="669"/>
      <point x="400" y="641" type="curve" smooth="yes"/>
      <point x="382" y="452" type="line" smooth="yes"/>
      <point x="418" y="452" type="line" smooth="yes"/>
    </contour>
  </outline>
</glyph>
<glyph name="parenleft" format="1">
  <advance width="800"/>
  <unicode hex="0028"/>
  <outline>
    <contour>
      <point x="634" y="-192" type="curve"/>
      <point x="644" y="-155" type="line"/>
      <point x="466" y="-155"/>
      <point x="359" y="31"/>
      <point x="417" y="250" type="curve" smooth="yes"/>
      <point x="476" y="469"/>
      <point x="683" y="655"/>
      <point x="861" y="655" type="curve"/>
      <point x="871" y="692" type="line"/>
      <point x="673" y="692"/>
      <point x="407" y="549"/>
      <point x="326" y="250" type="curve" smooth="yes"/>
      <point x="246" y="-49"/>
      <point x="436" y="-192"/>
    </contour>
  </outline>
</glyph>
<glyph name="parenright" format="1">
  <advance width="800"/>
  <unicode hex="0029"/>
  <outline>
    <contour>
      <point x="166" y="-192" type="line"/>
      <point x="364" y="-192"/>
      <point x="630" y="-49"/>
      <point x="710" y="250" type="curve" smooth="yes"/>
      <point x="791" y="549"/>
      <point x="601" y="692"/>
      <point x="403" y="692" type="curve"/>
      <point x="393" y="655" type="line"/>
      <point x="571" y="655"/>
      <point x="678" y="469"/>
      <point x="619" y="250" type="curve" smooth="yes"/>
      <point x="561" y="31"/>
      <point x="354" y="-155"/>
      <point x="176" y="-155" type="curve"/>
    </contour>
  </outline>
</glyph>
<glyph name="asterisk" format="1">
  <advance width="800"/>
  <unicode hex="002A"/>
  <outline>
    <contour>
      <point x="455" y="449" type="curve"/>
      <point x="460" y="465" type="line"/>
      <point x="306" y="465"/>
      <point x="340" y="508"/>
      <point x="282" y="508" type="curve" smooth="yes"/>
      <point x="254" y="508"/>
      <point x="225" y="485"/>
      <point x="218" y="457" type="curve" smooth="yes"/>
      <point x="210" y="429"/>
      <point x="227" y="406"/>
      <point x="255" y="406" type="curve" smooth="yes"/>
      <point x="313" y="406"/>
      <point x="301" y="449"/>
    </contour>
    <contour>
      <point x="464" y="453" type="line"/>
      <point x="576" y="586"/>
      <point x="591" y="545"/>
      <point x="634" y="595" type="curve" smooth="yes"/>
      <point x="654" y="619"/>
      <point x="654" y="651"/>
      <point x="633" y="665" type="curve" smooth="yes"/>
      <point x="613" y="679"/>
      <point x="579" y="670"/>
      <point x="558" y="646" type="curve" smooth="yes"/>
      <point x="516" y="596"/>
      <point x="564" y="594"/>
      <point x="452" y="461" type="curve"/>
    </contour>
    <contour>
      <point x="455" y="449" type="line"/>
      <point x="609" y="449"/>
      <point x="575" y="406"/>
      <point x="633" y="406" type="curve" smooth="yes"/>
      <point x="661" y="406"/>
      <point x="690" y="429"/>
      <point x="698" y="457" type="curve" smooth="yes"/>
      <point x="705" y="485"/>
      <point x="688" y="508"/>
      <point x="660" y="508" type="curve" smooth="yes"/>
      <point x="602" y="508"/>
      <point x="614" y="465"/>
      <point x="460" y="465" type="curve"/>
    </contour>
    <contour>
      <point x="450" y="453" type="line"/>
      <point x="491" y="320"/>
      <point x="441" y="318"/>
      <point x="457" y="268" type="curve" smooth="yes"/>
      <point x="465" y="244"/>
      <point x="494" y="235"/>
      <point x="522" y="249" type="curve" smooth="yes"/>
      <point x="550" y="263"/>
      <point x="567" y="295"/>
      <point x="560" y="319" type="curve" smooth="yes"/>
      <point x="544" y="369"/>
      <point x="507" y="328"/>
      <point x="466" y="461" type="curve"/>
    </contour>
    <contour>
      <point x="450" y="453" type="curve"/>
      <point x="466" y="461" type="line"/>
      <point x="424" y="594"/>
      <point x="474" y="596"/>
      <point x="458" y="646" type="curve" smooth="yes"/>
      <point x="451" y="670"/>
      <point x="421" y="679"/>
      <point x="393" y="665" type="curve" smooth="yes"/>
      <point x="366" y="651"/>
      <point x="348" y="619"/>
      <point x="356" y="595" type="curve" smooth="yes"/>
      <point x="371" y="545"/>
      <point x="408" y="586"/>
    </contour>
    <contour>
      <point x="464" y="453" type="curve"/>
      <point x="452" y="461" type="line"/>
      <point x="339" y="328"/>
      <point x="324" y="369"/>
      <point x="282" y="319" type="curve" smooth="yes"/>
      <point x="261" y="295"/>
      <point x="262" y="263"/>
      <point x="282" y="249" type="curve" smooth="yes"/>
      <point x="302" y="235"/>
      <point x="337" y="244"/>
      <point x="357" y="268" type="curve" smooth="yes"/>
      <point x="399" y="318"/>
      <point x="351" y="320"/>
    </contour>
  </outline>
</glyph>
<glyph name="plus" format="1">
  <advance width="800"/>
  <unicode hex="002B"/>
  <outline>
    <contour>
      <point x="707" y="247" type="line" smooth="yes"/>
      <point x="207" y="247" type="line" smooth="yes"/>
      <point x="227" y="319" type="line" smooth="yes"/>
      <point x="727" y="319" type="line" smooth="yes"/>
    </contour>
    <contour>
      <point x="570" y="533" type="line" smooth="yes"/>
      <point x="436" y="33" type="line" smooth="yes"/>
      <point x="364" y="33" type="line" smooth="yes"/>
      <point x="498" y="533" type="line" smooth="yes"/>
    </contour>
  </outline>
</glyph>
<glyph name="comma" format="1">
  <advance width="800"/>
  <unicode hex="002C"/>
  <outline>
    <contour>
      <point x="486" y="138" type="curve" smooth="yes"/>
      <point x="441" y="138"/>
      <point x="395" y="104"/>
      <point x="384" y="63" type="curve" smooth="yes"/>
      <point x="373" y="22"/>
      <point x="398" y="-12"/>
      <point x="439" y="-12" type="curve" smooth="yes"/>
      <point x="452" y="-12"/>
      <point x="457" y="-11"/>
      <point x="467" y="-5" type="curve"/>
      <point x="448" y="-76"/>
      <point x="315" y="-127"/>
      <point x="315" y="-127" type="curve"/>
      <point x="326" y="-158" type="line"/>
      <point x="437" y="-115"/>
      <point x="517" y="-64"/>
      <point x="549" y="54" type="curve" smooth="yes"/>
      <point x="561" y="99"/>
      <point x="533" y="138"/>
    </contour>
  </outline>
</glyph>
<glyph name="hyphen" format="1">
  <advance width="800"/>
  <unicode hex="002D"/>
  <outline>
    <contour>
      <point x="650" y="247" type="line" smooth="yes"/>
      <point x="150" y="247" type="line" smooth="yes"/>
      <point x="169" y="319" type="line" smooth="yes"/>
      <point x="669" y="319" type="line" smooth="yes"/>
    </contour>
  </outline>
</glyph>
<glyph name="period" format="1">
  <advance width="800"/>
  <unicode hex="002E"/>
  <outline>
    <contour>
      <point x="495" y="64" type="curve" smooth="yes"/>
      <point x="484" y="23"/>
      <point x="441" y="-11"/>
      <point x="400" y="-11" type="curve" smooth="yes"/>
      <point x="359" y="-11"/>
      <point x="334" y="23"/>
      <point x="345" y="64" type="curve" smooth="yes"/>
      <point x="356" y="105"/>
      <point x="399" y="139"/>
      <point x="440" y="139" type="curve" smooth="yes"/>
      <point x="481" y="139"/>
      <point x="506" y="105"/>
    </contour>
  </outline>
</glyph>
<glyph name="slash" format="1">
  <advance width="800"/>
  <unicode hex="002F"/>
  <outline>
    <contour>
      <point x="200" y="-192" type="line" smooth="yes"/>
      <point x="120" y="-192" type="line" smooth="yes"/>
      <point x="837" y="692" type="line" smooth="yes"/>
      <point x="917" y="692" type="line" smooth="yes"/>
    </contour>
  </outline>
</glyph>
<glyph name="zero" format="1">
  <advance width="800"/>
  <unicode hex="0030"/>
  <outline>
    <contour>
      <point x="425" y="20" type="curve" smooth="yes"/>
      <point x="283" y="20"/>
      <point x="254" y="192"/>
      <point x="297" y="355" type="curve" smooth="yes"/>
      <point x="336" y="501"/>
      <point x="435" y="641"/>
      <point x="559" y="641" type="curve" smooth="yes"/>
      <point x="701" y="641"/>
      <point x="730" y="469"/>
      <point x="686" y="306" type="curve" smooth="yes"/>
      <point x="647" y="160"/>
      <point x="549" y="20"/>
    </contour>
    <contour>
      <point x="599" y="672" type="curve" smooth="yes"/>
      <point x="389" y="672"/>
      <point x="234" y="490"/>
      <point x="186" y="313" type="curve" smooth="yes"/>
      <point x="142" y="147"/>
      <point x="213" y="-12"/>
      <point x="405" y="-12" type="curve" smooth="yes"/>
      <point x="615" y="-12"/>
      <point x="751" y="170"/>
      <point x="798" y="347" type="curve" smooth="yes"/>
      <point x="843" y="513"/>
      <point x="791" y="672"/>
    </contour>
    <contour>
      <point x="227" y="95" type="line" smooth="yes"/>
      <point x="278" y="95" type="line" smooth="yes"/>
      <point x="757" y="565" type="line" smooth="yes"/>
      <point x="706" y="565" type="line" smooth="yes"/>
    </contour>
  </outline>
</glyph>
<glyph name="one" format="1">
  <advance width="800"/>
  <unicode hex="0031"/>
  <outline>
    <contour>
      <point x="704" y="78" type="line"/>
      <point x="659" y="73"/>
      <point x="539" y="48"/>
      <point x="466" y="48" type="curve" smooth="yes"/>
      <point x="378" y="48" type="line" smooth="yes"/>
      <point x="305" y="48"/>
      <point x="199" y="73"/>
      <point x="156" y="78" type="curve"/>
      <point x="135" y="0" type="line" smooth="yes"/>
      <point x="683" y="0" type="line" smooth="yes"/>
    </contour>
    <contour>
      <point x="591" y="672" type="line"/>
      <point x="546" y="605"/>
      <point x="445" y="504"/>
      <point x="401" y="504" type="curve" smooth="yes"/>
      <point x="374" y="504"/>
      <point x="379" y="544"/>
      <point x="334" y="544" type="curve" smooth="yes"/>
      <point x="311" y="544"/>
      <point x="284" y="527"/>
      <point x="277" y="500" type="curve" smooth="yes"/>
      <point x="267" y="462"/>
      <point x="292" y="442"/>
      <point x="332" y="442" type="curve" smooth="yes"/>
      <point x="379" y="442"/>
      <point x="449" y="474"/>
      <point x="510" y="546" type="curve"/>
      <point x="365" y="0" type="line"/>
      <point x="453" y="0" type="line"/>
      <point x="633" y="672" type="line"/>
    </contour>
  </outline>
</glyph>
<glyph name="two" format="1">
  <advance width="800"/>
  <unicode hex="0032"/>
  <outline>
    <contour>
      <point x="141" y="58" type="curve" smooth="yes"/>
      <point x="125" y="0" type="line" smooth="yes"/>
      <point x="675" y="0" type="line" smooth="yes"/>
      <point x="696" y="78" type="line"/>
      <point x="651" y="73"/>
      <point x="531" y="48"/>
      <point x="458" y="48" type="curve" smooth="yes"/>
      <point x="370" y="48" type="line" smooth="yes"/>
      <point x="333" y="48"/>
      <point x="289" y="51"/>
      <point x="250" y="60" type="curve" smooth="yes"/>
      <point x="238" y="63"/>
      <point x="233" y="83"/>
      <point x="237" y="96" type="curve" smooth="yes"/>
      <point x="253" y="156"/>
      <point x="305" y="185"/>
      <point x="388" y="218" type="curve" smooth="yes"/>
      <point x="531" y="274"/>
      <point x="728" y="273"/>
      <point x="779" y="464" type="curve" smooth="yes"/>
      <point x="805" y="559"/>
      <point x="751" y="672"/>
      <point x="595" y="672" type="curve" smooth="yes"/>
      <point x="447" y="672"/>
      <point x="283" y="586"/>
      <point x="269" y="529" type="curve" smooth="yes"/>
      <point x="261" y="505"/>
      <point x="270" y="482"/>
      <point x="302" y="482" type="curve" smooth="yes"/>
      <point x="335" y="482"/>
      <point x="390" y="502"/>
      <point x="396" y="523" type="curve" smooth="yes"/>
      <point x="404" y="556"/>
      <point x="369" y="563"/>
      <point x="402" y="588" type="curve" smooth="yes"/>
      <point x="432" y="613"/>
      <point x="488" y="634"/>
      <point x="536" y="634" type="curve" smooth="yes"/>
      <point x="649" y="634"/>
      <point x="708" y="550"/>
      <point x="678" y="438" type="curve" smooth="yes"/>
      <point x="646" y="316"/>
      <point x="484" y="298"/>
      <point x="387" y="259" type="curve" smooth="yes"/>
      <point x="276" y="214"/>
      <point x="166" y="154"/>
    </contour>
  </outline>
</glyph>
<glyph name="three" format="1">
  <advance width="800"/>
  <unicode hex="0033"/>
  <outline>
    <contour>
      <point x="611" y="672" type="curve" smooth="yes"/>
      <point x="477" y="672"/>
      <point x="309" y="613"/>
      <point x="288" y="533" type="curve" smooth="yes"/>
      <point x="282" y="509"/>
      <point x="289" y="486"/>
      <point x="321" y="486" type="curve" smooth="yes"/>
      <point x="354" y="486"/>
      <point x="410" y="506"/>
      <point x="415" y="527" type="curve" smooth="yes"/>
      <point x="424" y="560"/>
      <point x="375" y="566"/>
      <point x="408" y="591" type="curve" smooth="yes"/>
      <point x="438" y="616"/>
      <point x="502" y="639"/>
      <point x="550" y="639" type="curve" smooth="yes"/>
      <point x="637" y="639"/>
      <point x="708" y="593"/>
      <point x="681" y="492" type="curve" smooth="yes"/>
      <point x="656" y="399"/>
      <point x="542" y="371"/>
      <point x="434" y="374" type="curve"/>
      <point x="425" y="337" type="line"/>
      <point x="561" y="339"/>
      <point x="750" y="399"/>
      <point x="783" y="523" type="curve" smooth="yes"/>
      <point x="806" y="609"/>
      <point x="752" y="672"/>
    </contour>
    <contour>
      <point x="264" y="123" type="curve" smooth="yes"/>
      <point x="270" y="144"/>
      <point x="286" y="152"/>
      <point x="291" y="171" type="curve" smooth="yes"/>
      <point x="298" y="197"/>
      <point x="280" y="209"/>
      <point x="256" y="209" type="curve" smooth="yes"/>
      <point x="223" y="209"/>
      <point x="176" y="185"/>
      <point x="164" y="141" type="curve" smooth="yes"/>
      <point x="137" y="41"/>
      <point x="238" y="-12"/>
      <point x="363" y="-12" type="curve" smooth="yes"/>
      <point x="513" y="-12"/>
      <point x="698" y="63"/>
      <point x="738" y="213" type="curve" smooth="yes"/>
      <point x="780" y="370"/>
      <point x="585" y="372"/>
      <point x="434" y="374" type="curve"/>
      <point x="425" y="338" type="line"/>
      <point x="566" y="345"/>
      <point x="668" y="300"/>
      <point x="635" y="179" type="curve" smooth="yes"/>
      <point x="606" y="69"/>
      <point x="509" y="29"/>
      <point x="422" y="29" type="curve" smooth="yes"/>
      <point x="331" y="29"/>
      <point x="251" y="72"/>
    </contour>
  </outline>
</glyph>
<glyph name="four" format="1">
  <advance width="800"/>
  <unicode hex="0034"/>
  <outline>
    <contour>
      <point x="225" y="218" type="curve"/>
      <point x="326" y="289"/>
      <point x="514" y="393"/>
      <point x="572" y="608" type="curve" smooth="yes"/>
      <point x="583" y="648"/>
      <point x="542" y="672"/>
      <point x="510" y="672" type="curve" smooth="yes"/>
      <point x="485" y="672"/>
      <point x="457" y="657"/>
      <point x="449" y="627" type="curve" smooth="yes"/>
      <point x="442" y="600"/>
      <point x="511" y="594"/>
      <point x="502" y="560" type="curve" smooth="yes"/>
      <point x="469" y="437"/>
      <point x="258" y="308"/>
      <point x="163" y="251" type="curve" smooth="yes"/>
      <point x="163" y="251"/>
      <point x="225" y="218"/>
    </contour>
    <contour>
      <point x="498" y="221" type="curve" smooth="yes"/>
      <point x="410" y="221" type="line" smooth="yes"/>
      <point x="337" y="221"/>
      <point x="216" y="234"/>
      <point x="162" y="251" type="curve"/>
      <point x="141" y="173" type="line" smooth="yes"/>
      <point x="741" y="173" type="line" smooth="yes"/>
      <point x="762" y="251" type="line"/>
      <point x="700" y="234"/>
      <point x="571" y="221"/>
    </contour>
    <contour>
      <point x="399" y="18" type="curve"/>
      <point x="394" y="0" type="line" smooth="yes"/>
      <point x="620" y="0" type="line" smooth="yes"/>
      <point x="625" y="18" type="line"/>
      <point x="584" y="26"/>
      <point x="564" y="47"/>
      <point x="571" y="76" type="curve" smooth="yes"/>
      <point x="731" y="672" type="line" smooth="yes"/>
      <point x="689" y="672" type="line" smooth="yes"/>
      <point x="621" y="592" type="line" smooth="yes"/>
      <point x="483" y="73" type="line" smooth="yes"/>
      <point x="475" y="45"/>
      <point x="442" y="26"/>
    </contour>
  </outline>
</glyph>
<glyph name="five" format="1">
  <advance width="800"/>
  <unicode hex="0035"/>
  <outline>
    <contour>
      <point x="281" y="327" type="line"/>
      <point x="374" y="353" type="line" smooth="yes"/>
      <point x="527" y="660" type="line" smooth="yes"/>
      <point x="447" y="660" type="line" smooth="yes"/>
    </contour>
    <contour>
      <point x="475" y="595" type="curve"/>
      <point x="451" y="549" type="line"/>
      <point x="494" y="542"/>
      <point x="535" y="540"/>
      <point x="573" y="540" type="curve" smooth="yes"/>
      <point x="719" y="540"/>
      <point x="817" y="584"/>
      <point x="830" y="635" type="curve" smooth="yes"/>
      <point x="836" y="655"/>
      <point x="827" y="672"/>
      <point x="795" y="672" type="curve" smooth="yes"/>
      <point x="773" y="672"/>
      <point x="730" y="664"/>
      <point x="724" y="641" type="curve" smooth="yes"/>
      <point x="718" y="618"/>
      <point x="744" y="611"/>
      <point x="713" y="593" type="curve" smooth="yes"/>
      <point x="692" y="581"/>
      <point x="651" y="576"/>
      <point x="608" y="576" type="curve" smooth="yes"/>
      <point x="554" y="576"/>
      <point x="498" y="584"/>
    </contour>
    <contour>
      <point x="635" y="179" type="curve" smooth="yes"/>
      <point x="606" y="69"/>
      <point x="509" y="29"/>
      <point x="422" y="29" type="curve" smooth="yes"/>
      <point x="331" y="29"/>
      <point x="251" y="72"/>
      <point x="264" y="123" type="curve" smooth="yes"/>
      <point x="270" y="144"/>
      <point x="286" y="152"/>
      <point x="291" y="171" type="curve" smooth="yes"/>
      <point x="298" y="197"/>
      <point x="280" y="209"/>
      <point x="256" y="209" type="curve" smooth="yes"/>
      <point x="223" y="209"/>
      <point x="176" y="185"/>
      <point x="164" y="141" type="curve" smooth="yes"/>
      <point x="137" y="41"/>
      <point x="238" y="-12"/>
      <point x="363" y="-12" type="curve" smooth="yes"/>
      <point x="513" y="-12"/>
      <point x="698" y="63"/>
      <point x="738" y="213" type="curve" smooth="yes"/>
      <point x="784" y="385"/>
      <point x="587" y="419"/>
      <point x="449" y="393" type="curve" smooth="yes"/>
      <point x="400" y="384"/>
      <point x="322" y="353"/>
      <point x="281" y="327" type="curve"/>
      <point x="309" y="310" type="line"/>
      <point x="336" y="326"/>
      <point x="381" y="338"/>
      <point x="434" y="349" type="curve" smooth="yes"/>
      <point x="577" y="379"/>
      <point x="668" y="300"/>
    </contour>
  </outline>
</glyph>
<glyph name="six" format="1">
  <advance width="800"/>
  <unicode hex="0036"/>
  <outline>
    <contour>
      <point x="284" y="260" type="curve" smooth="yes"/>
      <point x="304" y="334"/>
      <point x="407" y="378"/>
      <point x="500" y="378" type="curve" smooth="yes"/>
      <point x="600" y="378"/>
      <point x="686" y="320"/>
      <point x="655" y="203" type="curve" smooth="yes"/>
      <point x="624" y="87"/>
      <point x="524" y="28"/>
      <point x="434" y="28" type="curve" smooth="yes"/>
      <point x="331" y="28"/>
      <point x="242" y="104"/>
    </contour>
    <contour>
      <point x="315" y="357" type="curve"/>
      <point x="366" y="487"/>
      <point x="562" y="618"/>
      <point x="772" y="643" type="curve"/>
      <point x="761" y="673" type="line"/>
      <point x="535" y="672"/>
      <point x="250" y="516"/>
      <point x="177" y="242" type="curve" smooth="yes"/>
      <point x="130" y="66"/>
      <point x="244" y="-12"/>
      <point x="384" y="-12" type="curve" smooth="yes"/>
      <point x="535" y="-12"/>
      <point x="715" y="79"/>
      <point x="757" y="236" type="curve" smooth="yes"/>
      <point x="791" y="361"/>
      <point x="692" y="436"/>
      <point x="567" y="436" type="curve" smooth="yes"/>
      <point x="479" y="436"/>
      <point x="380" y="404"/>
    </contour>
  </outline>
</glyph>
<glyph name="seven" format="1">
  <advance width="800"/>
  <unicode hex="0037"/>
  <outline>
    <contour>
      <point x="484" y="18" type="line"/>
      <point x="433" y="24"/>
      <point x="422" y="45"/>
      <point x="431" y="76" type="curve" smooth="yes"/>
      <point x="504" y="329"/>
      <point x="710" y="532"/>
      <point x="850" y="622" type="curve"/>
      <point x="829" y="636"/>
      <point x="822" y="649"/>
      <point x="808" y="672" type="curve"/>
      <point x="746" y="652"/>
      <point x="585" y="599"/>
      <point x="464" y="599" type="curve" smooth="yes"/>
      <point x="405" y="599"/>
      <point x="378" y="613"/>
      <point x="383" y="632" type="curve" smooth="yes"/>
      <point x="392" y="663"/>
      <point x="364" y="672"/>
      <point x="336" y="672" type="curve" smooth="yes"/>
      <point x="315" y="672"/>
      <point x="294" y="660"/>
      <point x="287" y="636" type="curve" smooth="yes"/>
      <point x="279" y="605"/>
      <point x="283" y="548"/>
      <point x="385" y="548" type="curve" smooth="yes"/>
      <point x="506" y="548"/>
      <point x="699" y="602"/>
      <point x="766" y="625" type="curve"/>
      <point x="648" y="543"/>
      <point x="429" y="358"/>
      <point x="331" y="75" type="curve" smooth="yes"/>
      <point x="319" y="42"/>
      <point x="294" y="22"/>
      <point x="242" y="18" type="curve"/>
      <point x="237" y="0" type="line" smooth="yes"/>
      <point x="479" y="0" type="line" smooth="yes"/>
    </contour>
  </outline>
</glyph>
<glyph name="eight" format="1">
  <advance width="800"/>
  <unicode hex="0038"/>
  <outline>
    <contour>
      <point x="438" y="343" type="line"/>
      <point x="279" y="310"/>
      <point x="185" y="228"/>
      <point x="165" y="151" type="curve" smooth="yes"/>
      <point x="142" y="67"/>
      <point x="206" y="-12"/>
      <point x="365" y="-12" type="curve" smooth="yes"/>
      <point x="516" y="-12"/>
      <point x="700" y="63"/>
      <point x="734" y="188" type="curve" smooth="yes"/>
      <point x="761" y="292"/>
      <point x="624" y="323"/>
      <point x="513" y="367" type="curve" smooth="yes"/>
      <point x="433" y="398"/>
      <point x="368" y="436"/>
      <point x="389" y="513" type="curve" smooth="yes"/>
      <point x="412" y="599"/>
      <point x="481" y="636"/>
      <point x="547" y="636" type="curve" smooth="yes"/>
      <point x="659" y="636"/>
      <point x="705" y="554"/>
      <point x="684" y="478" type="curve" smooth="yes"/>
      <point x="668" y="417"/>
      <point x="610" y="361"/>
      <point x="508" y="352" type="curve"/>
      <point x="539" y="334" type="line"/>
      <point x="675" y="351"/>
      <point x="767" y="434"/>
      <point x="788" y="514" type="curve" smooth="yes"/>
      <point x="809" y="594"/>
      <point x="760" y="672"/>
      <point x="615" y="672" type="curve" smooth="yes"/>
      <point x="483" y="672"/>
      <point x="318" y="601"/>
      <point x="286" y="479" type="curve" smooth="yes"/>
      <point x="260" y="384"/>
      <point x="366" y="347"/>
      <point x="467" y="309" type="curve" smooth="yes"/>
      <point x="562" y="274"/>
      <point x="653" y="238"/>
      <point x="630" y="154" type="curve" smooth="yes"/>
      <point x="607" y="66"/>
      <point x="523" y="26"/>
      <point x="441" y="26" type="curve" smooth="yes"/>
      <point x="315" y="26"/>
      <point x="247" y="110"/>
      <point x="268" y="189" type="curve" smooth="yes"/>
      <point x="284" y="249"/>
      <point x="350" y="306"/>
      <point x="480" y="322" type="curve"/>
    </contour>
  </outline>
</glyph>
<glyph name="nine" format="1">
  <advance width="800"/>
  <unicode hex="0039"/>
  <outline>
    <contour>
      <point x="700" y="401" type="curve" smooth="yes"/>
      <point x="680" y="327"/>
      <point x="577" y="283"/>
      <point x="484" y="283" type="curve" smooth="yes"/>
      <point x="384" y="283"/>
      <point x="298" y="341"/>
      <point x="329" y="458" type="curve" smooth="yes"/>
      <point x="360" y="574"/>
      <point x="460" y="633"/>
      <point x="550" y="633" type="curve" smooth="yes"/>
      <point x="653" y="633"/>
      <point x="741" y="557"/>
    </contour>
    <contour>
      <point x="669" y="304" type="curve"/>
      <point x="618" y="174"/>
      <point x="422" y="43"/>
      <point x="212" y="18" type="curve"/>
      <point x="223" y="-12" type="line"/>
      <point x="448" y="-11"/>
      <point x="733" y="145"/>
      <point x="806" y="419" type="curve" smooth="yes"/>
      <point x="854" y="595"/>
      <point x="740" y="673"/>
      <point x="600" y="673" type="curve" smooth="yes"/>
      <point x="449" y="673"/>
      <point x="268" y="582"/>
      <point x="226" y="425" type="curve" smooth="yes"/>
      <point x="193" y="300"/>
      <point x="292" y="225"/>
      <point x="417" y="225" type="curve" smooth="yes"/>
      <point x="505" y="225"/>
      <point x="603" y="257"/>
    </contour>
  </outline>
</glyph>
<glyph name="colon" format="1">
  <advance width="800"/>
  <unicode hex="003A"/>
  <outline>
    <contour>
      <point x="595" y="437" type="curve" smooth="yes"/>
      <point x="584" y="396"/>
      <point x="541" y="362"/>
      <point x="500" y="362" type="curve" smooth="yes"/>
      <point x="459" y="362"/>
      <point x="434" y="396"/>
      <point x="445" y="437" type="curve" smooth="yes"/>
      <point x="456" y="478"/>
      <point x="499" y="512"/>
      <point x="540" y="512" type="curve" smooth="yes"/>
      <point x="581" y="512"/>
      <point x="606" y="478"/>
    </contour>
    <contour>
      <point x="495" y="64" type="curve" smooth="yes"/>
      <point x="484" y="23"/>
      <point x="441" y="-11"/>
      <point x="400" y="-11" type="curve" smooth="yes"/>
      <point x="359" y="-11"/>
      <point x="334" y="23"/>
      <point x="345" y="64" type="curve" smooth="yes"/>
      <point x="356" y="105"/>
      <point x="399" y="139"/>
      <point x="440" y="139" type="curve" smooth="yes"/>
      <point x="481" y="139"/>
      <point x="506" y="105"/>
    </contour>
  </outline>
</glyph>
<glyph name="semicolon" format="1">
  <advance width="800"/>
  <unicode hex="003B"/>
  <outline>
    <contour>
      <point x="580" y="512" type="curve" smooth="yes"/>
      <point x="539" y="512"/>
      <point x="495" y="478"/>
      <point x="484" y="437" type="curve" smooth="yes"/>
      <point x="473" y="396"/>
      <point x="498" y="362"/>
      <point x="539" y="362" type="curve" smooth="yes"/>
      <point x="580" y="362"/>
      <point x="623" y="396"/>
      <point x="634" y="437" type="curve" smooth="yes"/>
      <point x="645" y="478"/>
      <point x="621" y="512"/>
    </contour>
    <contour>
      <point x="486" y="138" type="curve" smooth="yes"/>
      <point x="441" y="138"/>
      <point x="395" y="104"/>
      <point x="384" y="63" type="curve" smooth="yes"/>
      <point x="373" y="22"/>
      <point x="398" y="-12"/>
      <point x="439" y="-12" type="curve" smooth="yes"/>
      <point x="452" y="-12"/>
      <point x="457" y="-11"/>
      <point x="467" y="-5" type="curve"/>
      <point x="448" y="-76"/>
      <point x="315" y="-127"/>
      <point x="315" y="-127" type="curve"/>
      <point x="326" y="-158" type="line"/>
      <point x="437" y="-115"/>
      <point x="517" y="-64"/>
      <point x="549" y="54" type="curve" smooth="yes"/>
      <point x="561" y="99"/>
      <point x="533" y="138"/>
    </contour>
  </outline>
</glyph>
<glyph name="less" format="1">
  <advance width="800"/>
  <unicode hex="003C"/>
  <outline>
    <contour>
      <point x="306" y="327" type="line" smooth="yes"/>
      <point x="820" y="543" type="line" smooth="yes"/>
      <point x="837" y="606" type="line" smooth="yes"/>
      <point x="231" y="347" type="line" smooth="yes"/>
      <point x="212" y="276" type="line" smooth="yes"/>
      <point x="675" y="0" type="line" smooth="yes"/>
      <point x="699" y="88" type="line" smooth="yes"/>
    </contour>
  </outline>
</glyph>
<glyph name="equal" format="1">
  <advance width="800"/>
  <unicode hex="003D"/>
  <outline>
    <contour>
      <point x="704" y="347" type="line" smooth="yes"/>
      <point x="204" y="347" type="line" smooth="yes"/>
      <point x="223" y="419" type="line" smooth="yes"/>
      <point x="723" y="419" type="line" smooth="yes"/>
    </contour>
    <contour>
      <point x="650" y="147" type="line" smooth="yes"/>
      <point x="150" y="147" type="line" smooth="yes"/>
      <point x="169" y="219" type="line" smooth="yes"/>
      <point x="669" y="219" type="line" smooth="yes"/>
    </contour>
  </outline>
</glyph>
<glyph name="greater" format="1">
  <advance width="800"/>
  <unicode hex="003E"/>
  <outline>
    <contour>
      <point x="657" y="279" type="line" smooth="yes"/>
      <point x="142" y="63" type="line" smooth="yes"/>
      <point x="125" y="0" type="line" smooth="yes"/>
      <point x="731" y="259" type="line" smooth="yes"/>
      <point x="750" y="330" type="line" smooth="yes"/>
      <point x="287" y="606" type="line" smooth="yes"/>
      <point x="264" y="518" type="line" smooth="yes"/>
    </contour>
  </outline>
</glyph>
<glyph name="question" format="1">
  <advance width="800"/>
  <unicode hex="003F"/>
  <outline>
    <contour>
      <point x="481" y="52" type="curve" smooth="yes"/>
      <point x="472" y="17"/>
      <point x="435" y="-12"/>
      <point x="400" y="-12" type="curve" smooth="yes"/>
      <point x="365" y="-12"/>
      <point x="344" y="17"/>
      <point x="353" y="52" type="curve" smooth="yes"/>
      <point x="363" y="87"/>
      <point x="399" y="116"/>
      <point x="434" y="116" type="curve" smooth="yes"/>
      <point x="469" y="116"/>
      <point x="491" y="87"/>
    </contour>
    <contour>
      <point x="782" y="518" type="curve" smooth="yes"/>
      <point x="811" y="628"/>
      <point x="723" y="673"/>
      <point x="613" y="673" type="curve" smooth="yes"/>
      <point x="485" y="673"/>
      <point x="328" y="612"/>
      <point x="305" y="524" type="curve" smooth="yes"/>
      <point x="299" y="502"/>
      <point x="310" y="482"/>
      <point x="339" y="482" type="curve" smooth="yes"/>
      <point x="372" y="482"/>
      <point x="428" y="502"/>
      <point x="433" y="523" type="curve" smooth="yes"/>
      <point x="442" y="556"/>
      <point x="408" y="562"/>
      <point x="439" y="588" type="curve" smooth="yes"/>
      <point x="478" y="622"/>
      <point x="537" y="644"/>
      <point x="580" y="644" type="curve" smooth="yes"/>
      <point x="657" y="644"/>
      <point x="711" y="590"/>
      <point x="688" y="502" type="curve" smooth="yes"/>
      <point x="657" y="388"/>
      <point x="470" y="432"/>
      <point x="445" y="223" type="curve"/>
      <point x="482" y="223" type="line"/>
      <point x="523" y="407"/>
      <point x="738" y="353"/>
    </contour>
  </outline>
</glyph>
<glyph name="at" format="1">
  <advance width="800"/>
  <unicode hex="0040"/>
  <outline>
    <contour>
      <point x="503" y="199" type="line" smooth="yes"/>
      <point x="436" y="78"/>
      <point x="802" y="93"/>
      <point x="886" y="404" type="curve" smooth="yes"/>
      <point x="934" y="585"/>
      <point x="809" y="672"/>
      <point x="645" y="672" type="curve" smooth="yes"/>
      <point x="446" y="672"/>
      <point x="192" y="545"/>
      <point x="127" y="305" type="curve" smooth="yes"/>
      <point x="61" y="57"/>
      <point x="231" y="-43"/>
      <point x="414" y="-43" type="curve" smooth="yes"/>
      <point x="518" y="-43"/>
      <point x="627" y="-11"/>
      <point x="699" y="45" type="curve" smooth="yes"/>
      <point x="763" y="96"/>
      <point x="691" y="107"/>
      <point x="652" y="70" type="curve" smooth="yes"/>
      <point x="597" y="17"/>
      <point x="522" y="-10"/>
      <point x="448" y="-10" type="curve" smooth="yes"/>
      <point x="299" y="-10"/>
      <point x="159" y="102"/>
      <point x="219" y="328" type="curve" smooth="yes"/>
      <point x="273" y="528"/>
      <point x="457" y="633"/>
      <point x="605" y="633" type="curve" smooth="yes"/>
      <point x="739" y="633"/>
      <point x="844" y="547"/>
      <point x="797" y="371" type="curve" smooth="yes"/>
      <point x="734" y="136"/>
      <point x="537" y="125"/>
      <point x="586" y="217" type="curve" smooth="yes"/>
      <point x="728" y="487" type="line" smooth="yes"/>
      <point x="738" y="506"/>
      <point x="653" y="473"/>
      <point x="646" y="459" type="curve" smooth="yes"/>
    </contour>
    <contour>
      <point x="657" y="418" type="curve"/>
      <point x="658" y="479"/>
      <point x="624" y="506"/>
      <point x="577" y="506" type="curve" smooth="yes"/>
      <point x="483" y="506"/>
      <point x="337" y="402"/>
      <point x="297" y="251" type="curve" smooth="yes"/>
      <point x="253" y="87"/>
      <point x="430" y="99"/>
      <point x="549" y="221" type="curve" smooth="yes"/>
      <point x="582" y="255"/>
      <point x="553" y="263"/>
      <point x="537" y="245" type="curve" smooth="yes"/>
      <point x="509" y="212"/>
      <point x="449" y="173"/>
      <point x="410" y="173" type="curve" smooth="yes"/>
      <point x="381" y="173"/>
      <point x="364" y="195"/>
      <point x="381" y="258" type="curve" smooth="yes"/>
      <point x="381" y="260"/>
      <point x="381" y="261"/>
      <point x="382" y="263" type="curve" smooth="yes"/>
      <point x="421" y="399"/>
      <point x="515" y="475"/>
      <point x="574" y="475" type="curve" smooth="yes"/>
      <point x="605" y="475"/>
      <point x="626" y="454"/>
      <point x="624" y="410" type="curve" smooth="yes"/>
      <point x="624" y="401"/>
      <point x="657" y="418"/>
    </contour>
  </outline>
</glyph>
<glyph name="A" format="1">
  <advance width="800"/>
  <unicode hex="0041"/>
  <outline>
    <contour>
      <point x="637" y="199" type="line" smooth="yes"/>
      <point x="649" y="244" type="line" smooth="yes"/>
      <point x="280" y="244" type="line" smooth="yes"/>
      <point x="268" y="199" type="line" smooth="yes"/>
    </contour>
    <contour>
      <point x="564" y="672" type="line"/>
      <point x="143" y="75" type="line" smooth="yes"/>
      <point x="114" y="34"/>
      <point x="74" y="24"/>
      <point x="34" y="18" type="curve"/>
      <point x="29" y="0" type="line" smooth="yes"/>
      <point x="251" y="0" type="line" smooth="yes"/>
      <point x="256" y="18" type="line"/>
      <point x="212" y="24"/>
      <point x="162" y="34"/>
      <point x="191" y="75" type="curve" smooth="yes"/>
      <point x="547" y="581" type="line"/>
      <point x="521" y="580" type="line"/>
      <point x="607" y="75" type="line" smooth="yes"/>
      <point x="613" y="42"/>
      <point x="576" y="26"/>
      <point x="532" y="18" type="curve"/>
      <point x="527" y="0" type="line" smooth="yes"/>
      <point x="771" y="0" type="line" smooth="yes"/>
      <point x="776" y="18" type="line"/>
      <point x="728" y="28"/>
      <point x="716" y="45"/>
      <point x="711" y="75" type="curve" smooth="yes"/>
      <point x="611" y="672" type="line"/>
    </contour>
  </outline>
</glyph>
<glyph name="B" format="1">
  <advance width="800"/>
  <unicode hex="0042"/>
  <outline>
    <contour>
      <point x="502" y="370" type="curve" smooth="yes"/>
      <point x="339" y="370" type="line"/>
      <point x="327" y="325" type="line"/>
      <point x="486" y="325" type="line" smooth="yes"/>
      <point x="642" y="325"/>
      <point x="693" y="260"/>
      <point x="675" y="191" type="curve" smooth="yes"/>
      <point x="650" y="100"/>
      <point x="548" y="45"/>
      <point x="401" y="45" type="curve" smooth="yes"/>
      <point x="252" y="45" type="line"/>
      <point x="240" y="0" type="line"/>
      <point x="397" y="0" type="line" smooth="yes"/>
      <point x="598" y="0"/>
      <point x="747" y="61"/>
      <point x="786" y="206" type="curve" smooth="yes"/>
      <point x="810" y="295"/>
      <point x="731" y="370"/>
    </contour>
    <contour>
      <point x="416" y="660" type="line"/>
      <point x="404" y="615" type="line"/>
      <point x="584" y="615" type="line" smooth="yes"/>
      <point x="682" y="615"/>
      <point x="721" y="560"/>
      <point x="703" y="495" type="curve" smooth="yes"/>
      <point x="686" y="432"/>
      <point x="620" y="370"/>
      <point x="514" y="370" type="curve" smooth="yes"/>
      <point x="339" y="370" type="line"/>
      <point x="327" y="325" type="line"/>
      <point x="461" y="325" type="line" smooth="yes"/>
      <point x="663" y="325"/>
      <point x="789" y="425"/>
      <point x="813" y="514" type="curve" smooth="yes"/>
      <point x="833" y="589"/>
      <point x="755" y="660"/>
      <point x="630" y="660" type="curve" smooth="yes"/>
    </contour>
    <contour>
      <point x="75" y="18" type="curve"/>
      <point x="71" y="0" type="line"/>
      <point x="240" y="0" type="line"/>
      <point x="416" y="660" type="line"/>
      <point x="247" y="660" type="line"/>
      <point x="243" y="642" type="line"/>
      <point x="283" y="634"/>
      <point x="304" y="613"/>
      <point x="296" y="584" type="curve" smooth="yes"/>
      <point x="160" y="76" type="line" smooth="yes"/>
      <point x="152" y="47"/>
      <point x="121" y="26"/>
    </contour>
  </outline>
</glyph>
<glyph name="C" format="1">
  <advance width="799.6111877809942"/>
  <unicode hex="0043"/>
  <outline>
    <contour>
      <point x="597" y="672" type="curve" smooth="yes"/>
      <point x="386" y="672"/>
      <point x="202" y="528"/>
      <point x="146" y="320" type="curve" smooth="yes"/>
      <point x="91" y="112"/>
      <point x="226" y="-12"/>
      <point x="434" y="-12" type="curve" smooth="yes"/>
      <point x="573" y="-12"/>
      <point x="702" y="70"/>
      <point x="801" y="192" type="curve" smooth="yes"/>
      <point x="832" y="230"/>
      <point x="734" y="223"/>
      <point x="710" y="186" type="curve" smooth="yes"/>
      <point x="652" y="95"/>
      <point x="553" y="35"/>
      <point x="456" y="35" type="curve" smooth="yes"/>
      <point x="283" y="35"/>
      <point x="219" y="169"/>
      <point x="265" y="342" type="curve" smooth="yes"/>
      <point x="305" y="492"/>
      <point x="427" y="627"/>
      <point x="577" y="627" type="curve" smooth="yes"/>
      <point x="685" y="627"/>
      <point x="793" y="574"/>
      <point x="804" y="449" type="curve"/>
      <point x="833" y="449" type="line"/>
      <point x="886" y="648" type="line"/>
      <point x="860" y="648" type="line"/>
      <point x="804" y="600" type="line"/>
      <point x="741" y="649"/>
      <point x="681" y="672"/>
    </contour>
  </outline>
</glyph>
<glyph name="D" format="1">
  <advance width="800"/>
  <unicode hex="0044"/>
  <outline>
    <contour>
      <point x="601" y="660" type="curve" smooth="yes"/>
      <point x="415" y="660" type="line"/>
      <point x="406" y="623" type="line" smooth="yes"/>
      <point x="524" y="623" type="line" smooth="yes"/>
      <point x="721" y="623"/>
      <point x="775" y="469"/>
      <point x="735" y="318" type="curve" smooth="yes"/>
      <point x="696" y="174"/>
      <point x="560" y="33"/>
      <point x="406" y="33" type="curve" smooth="yes"/>
      <point x="247" y="33" type="line" smooth="yes"/>
      <point x="239" y="0" type="line"/>
      <point x="383" y="0" type="line" smooth="yes"/>
      <point x="639" y="0"/>
      <point x="805" y="174"/>
      <point x="850" y="342" type="curve" smooth="yes"/>
      <point x="893" y="503"/>
      <point x="806" y="660"/>
    </contour>
    <contour>
      <point x="75" y="18" type="curve"/>
      <point x="71" y="0" type="line" smooth="yes"/>
      <point x="239" y="0" type="line" smooth="yes"/>
      <point x="415" y="660" type="line" smooth="yes"/>
      <point x="247" y="660" type="line" smooth="yes"/>
      <point x="243" y="642" type="line"/>
      <point x="283" y="634"/>
      <point x="304" y="613"/>
      <point x="296" y="584" type="curve"/>
      <point x="160" y="76" type="line"/>
      <point x="152" y="47"/>
      <point x="121" y="26"/>
    </contour>
  </outline>
</glyph>
<glyph name="E" format="1">
  <advance width="800"/>
  <unicode hex="0045"/>
  <outline>
    <contour>
      <point x="490" y="45" type="curve" smooth="yes"/>
      <point x="241" y="45" type="line" smooth="yes"/>
      <point x="229" y="0" type="line" smooth="yes"/>
      <point x="667" y="0" type="line"/>
      <point x="770" y="192" type="line" smooth="yes"/>
      <point x="725" y="192" type="line"/>
      <point x="669" y="77"/>
      <point x="610" y="45"/>
    </contour>
    <contour>
      <point x="626" y="615" type="line" smooth="yes"/>
      <point x="719" y="615"/>
      <point x="767" y="603"/>
      <point x="772" y="508" type="curve"/>
      <point x="817" y="508" type="line" smooth="yes"/>
      <point x="819" y="660" type="line" smooth="yes"/>
      <point x="406" y="660" type="line" smooth="yes"/>
      <point x="394" y="615" type="line" smooth="yes"/>
    </contour>
    <contour>
      <point x="604" y="244" type="curve"/>
      <point x="628" y="244" type="line" smooth="yes"/>
      <point x="677" y="427" type="line" smooth="yes"/>
      <point x="653" y="427" type="line"/>
      <point x="633" y="384"/>
      <point x="606" y="358"/>
      <point x="577" y="358" type="curve"/>
      <point x="326" y="358" type="line" smooth="yes"/>
      <point x="313" y="313" type="line" smooth="yes"/>
      <point x="564" y="313" type="line"/>
      <point x="593" y="313"/>
      <point x="607" y="287"/>
    </contour>
    <contour>
      <point x="75" y="18" type="curve"/>
      <point x="71" y="0" type="line" smooth="yes"/>
      <point x="240" y="0" type="line" smooth="yes"/>
      <point x="416" y="660" type="line" smooth="yes"/>
      <point x="247" y="660" type="line" smooth="yes"/>
      <point x="243" y="642" type="line"/>
      <point x="283" y="634"/>
      <point x="304" y="613"/>
      <point x="296" y="584" type="curve" smooth="yes"/>
      <point x="160" y="76" type="line" smooth="yes"/>
      <point x="152" y="47"/>
      <point x="121" y="26"/>
    </contour>
  </outline>
</glyph>
<glyph name="F" format="1">
  <advance width="800"/>
  <unicode hex="0046"/>
  <outline>
    <contour>
      <point x="679" y="358" type="line" smooth="yes"/>
      <point x="356" y="358" type="line" smooth="yes"/>
      <point x="343" y="313" type="line" smooth="yes"/>
      <point x="666" y="313" type="line" smooth="yes"/>
    </contour>
    <contour>
      <point x="673" y="427" type="line"/>
      <point x="653" y="384"/>
      <point x="626" y="358"/>
      <point x="597" y="358" type="curve"/>
      <point x="679" y="358" type="line" smooth="yes"/>
      <point x="697" y="427" type="line" smooth="yes"/>
    </contour>
    <contour>
      <point x="624" y="244" type="line"/>
      <point x="627" y="287"/>
      <point x="613" y="313"/>
      <point x="584" y="313" type="curve"/>
      <point x="666" y="313" type="line" smooth="yes"/>
      <point x="648" y="244" type="line" smooth="yes"/>
    </contour>
    <contour>
      <point x="646" y="615" type="line" smooth="yes"/>
      <point x="739" y="615"/>
      <point x="787" y="603"/>
      <point x="792" y="508" type="curve"/>
      <point x="837" y="508" type="line" smooth="yes"/>
      <point x="839" y="660" type="line" smooth="yes"/>
      <point x="436" y="660" type="line" smooth="yes"/>
      <point x="424" y="615" type="line" smooth="yes"/>
    </contour>
    <contour>
      <point x="95" y="18" type="curve"/>
      <point x="91" y="0" type="line" smooth="yes"/>
      <point x="329" y="0" type="line" smooth="yes"/>
      <point x="333" y="18" type="line"/>
      <point x="293" y="26"/>
      <point x="272" y="47"/>
      <point x="280" y="76" type="curve" smooth="yes"/>
      <point x="436" y="660" type="line" smooth="yes"/>
      <point x="267" y="660" type="line" smooth="yes"/>
      <point x="263" y="642" type="line"/>
      <point x="303" y="634"/>
      <point x="324" y="613"/>
      <point x="316" y="584" type="curve" smooth="yes"/>
      <point x="180" y="76" type="line" smooth="yes"/>
      <point x="172" y="47"/>
      <point x="141" y="26"/>
    </contour>
  </outline>
</glyph>
<glyph name="G" format="1">
  <advance width="800"/>
  <unicode hex="0047"/>
  <outline>
    <contour>
      <point x="836" y="273" type="line" smooth="yes"/>
      <point x="831" y="255" type="line"/>
      <point x="786" y="247"/>
      <point x="754" y="226"/>
      <point x="746" y="197" type="curve" smooth="yes"/>
      <point x="725" y="114" type="line"/>
      <point x="646" y="38"/>
      <point x="533" y="-12"/>
      <point x="412" y="-12" type="curve" smooth="yes"/>
      <point x="227" y="-12"/>
      <point x="65" y="90"/>
      <point x="126" y="320" type="curve" smooth="yes"/>
      <point x="191" y="560"/>
      <point x="398" y="672"/>
      <point x="577" y="672" type="curve" smooth="yes"/>
      <point x="661" y="672"/>
      <point x="721" y="649"/>
      <point x="784" y="600" type="curve"/>
      <point x="840" y="648" type="line"/>
      <point x="866" y="648" type="line"/>
      <point x="813" y="449" type="line"/>
      <point x="784" y="449" type="line"/>
      <point x="773" y="574"/>
      <point x="665" y="627"/>
      <point x="557" y="627" type="curve" smooth="yes"/>
      <point x="438" y="627"/>
      <point x="289" y="506"/>
      <point x="245" y="341" type="curve" smooth="yes"/>
      <point x="187" y="125"/>
      <point x="294" y="34"/>
      <point x="436" y="34" type="curve" smooth="yes"/>
      <point x="480" y="34"/>
      <point x="555" y="51"/>
      <point x="622" y="107" type="curve"/>
      <point x="646" y="197" type="line" smooth="yes"/>
      <point x="654" y="226"/>
      <point x="634" y="247"/>
      <point x="593" y="255" type="curve"/>
      <point x="598" y="273" type="line"/>
    </contour>
  </outline>
</glyph>
<glyph name="H" format="1">
  <advance width="800"/>
  <unicode hex="0048"/>
  <outline>
    <contour>
      <point x="698" y="323" type="line" smooth="yes"/>
      <point x="243" y="323" type="line" smooth="yes"/>
      <point x="255" y="368" type="line" smooth="yes"/>
      <point x="710" y="368" type="line" smooth="yes"/>
    </contour>
    <contour>
      <point x="34" y="18" type="curve"/>
      <point x="30" y="0" type="line" smooth="yes"/>
      <point x="268" y="0" type="line" smooth="yes"/>
      <point x="272" y="18" type="line"/>
      <point x="232" y="26"/>
      <point x="211" y="47"/>
      <point x="219" y="76" type="curve"/>
      <point x="355" y="584" type="line"/>
      <point x="363" y="613"/>
      <point x="394" y="634"/>
      <point x="440" y="642" type="curve"/>
      <point x="444" y="660" type="line" smooth="yes"/>
      <point x="206" y="660" type="line" smooth="yes"/>
      <point x="202" y="642" type="line"/>
      <point x="242" y="634"/>
      <point x="263" y="613"/>
      <point x="255" y="584" type="curve"/>
      <point x="119" y="76" type="line"/>
      <point x="111" y="47"/>
      <point x="80" y="26"/>
    </contour>
    <contour>
      <point x="522" y="18" type="curve"/>
      <point x="518" y="0" type="line" smooth="yes"/>
      <point x="756" y="0" type="line" smooth="yes"/>
      <point x="760" y="18" type="line"/>
      <point x="720" y="26"/>
      <point x="699" y="47"/>
      <point x="707" y="76" type="curve"/>
      <point x="843" y="584" type="line"/>
      <point x="851" y="613"/>
      <point x="882" y="634"/>
      <point x="928" y="642" type="curve"/>
      <point x="932" y="660" type="line" smooth="yes"/>
      <point x="694" y="660" type="line" smooth="yes"/>
      <point x="690" y="642" type="line"/>
      <point x="730" y="634"/>
      <point x="751" y="613"/>
      <point x="743" y="584" type="curve"/>
      <point x="607" y="76" type="line"/>
      <point x="599" y="47"/>
      <point x="568" y="26"/>
    </contour>
  </outline>
</glyph>
<glyph name="I" format="1">
  <advance width="800"/>
  <unicode hex="0049"/>
  <outline>
    <contour>
      <point x="296" y="660" type="line" smooth="yes"/>
      <point x="284" y="615" type="line" smooth="yes"/>
      <point x="440" y="615" type="line"/>
      <point x="481" y="607"/>
      <point x="502" y="586"/>
      <point x="494" y="557" type="curve" smooth="yes"/>
      <point x="372" y="103" type="line" smooth="yes"/>
      <point x="364" y="74"/>
      <point x="333" y="53"/>
      <point x="288" y="45" type="curve"/>
      <point x="132" y="45" type="line" smooth="yes"/>
      <point x="120" y="0" type="line"/>
      <point x="670" y="0" type="line"/>
      <point x="682" y="45" type="line" smooth="yes"/>
      <point x="526" y="45" type="line"/>
      <point x="485" y="53"/>
      <point x="464" y="74"/>
      <point x="472" y="103" type="curve" smooth="yes"/>
      <point x="594" y="557" type="line" smooth="yes"/>
      <point x="602" y="586"/>
      <point x="627" y="607"/>
      <point x="672" y="615" type="curve"/>
      <point x="834" y="615" type="line" smooth="yes"/>
      <point x="846" y="660" type="line"/>
    </contour>
  </outline>
</glyph>
<glyph name="J" format="1">
  <advance width="800"/>
  <unicode hex="004A"/>
  <outline>
    <contour>
      <point x="668" y="240" type="curve" smooth="yes"/>
      <point x="761" y="584" type="line"/>
      <point x="768" y="613"/>
      <point x="800" y="634"/>
      <point x="845" y="642" type="curve"/>
      <point x="850" y="660" type="line" smooth="yes"/>
      <point x="612" y="660" type="line" smooth="yes"/>
      <point x="607" y="642" type="line"/>
      <point x="648" y="634"/>
      <point x="668" y="613"/>
      <point x="661" y="584" type="curve"/>
      <point x="563" y="220" type="line" smooth="yes"/>
      <point x="537" y="124"/>
      <point x="464" y="36"/>
      <point x="375" y="36" type="curve" smooth="yes"/>
      <point x="304" y="36"/>
      <point x="233" y="77"/>
      <point x="251" y="146" type="curve" smooth="yes"/>
      <point x="257" y="167"/>
      <point x="276" y="174"/>
      <point x="281" y="193" type="curve" smooth="yes"/>
      <point x="286" y="212"/>
      <point x="270" y="231"/>
      <point x="246" y="231" type="curve" smooth="yes"/>
      <point x="207" y="231"/>
      <point x="164" y="202"/>
      <point x="154" y="163" type="curve" smooth="yes"/>
      <point x="124" y="53"/>
      <point x="219" y="-12"/>
      <point x="332" y="-12" type="curve" smooth="yes"/>
      <point x="478" y="-12"/>
      <point x="627" y="84"/>
    </contour>
  </outline>
</glyph>
<glyph name="K" format="1">
  <advance width="800"/>
  <unicode hex="004B"/>
  <outline>
    <contour>
      <point x="305" y="269" type="line" smooth="yes"/>
      <point x="718" y="592" type="line" smooth="yes"/>
      <point x="752" y="618"/>
      <point x="788" y="634"/>
      <point x="834" y="642" type="curve"/>
      <point x="838" y="660" type="line" smooth="yes"/>
      <point x="628" y="660" type="line" smooth="yes"/>
      <point x="624" y="642" type="line"/>
      <point x="676" y="636"/>
      <point x="690" y="622"/>
      <point x="651" y="592" type="curve" smooth="yes"/>
      <point x="238" y="269" type="line" smooth="yes"/>
    </contour>
    <contour>
      <point x="350" y="335" type="line" smooth="yes"/>
      <point x="535" y="75" type="line" smooth="yes"/>
      <point x="565" y="33"/>
      <point x="536" y="17"/>
      <point x="487" y="17" type="curve"/>
      <point x="483" y="0" type="line" smooth="yes"/>
      <point x="746" y="0" type="line" smooth="yes"/>
      <point x="750" y="18" type="line"/>
      <point x="695" y="24"/>
      <point x="676" y="49"/>
      <point x="658" y="75" type="curve" smooth="yes"/>
      <point x="443" y="377" type="line" smooth="yes"/>
    </contour>
    <contour>
      <point x="71" y="18" type="curve"/>
      <point x="67" y="0" type="line" smooth="yes"/>
      <point x="305" y="0" type="line" smooth="yes"/>
      <point x="309" y="18" type="line"/>
      <point x="269" y="26"/>
      <point x="248" y="47"/>
      <point x="256" y="76" type="curve"/>
      <point x="392" y="584" type="line"/>
      <point x="400" y="613"/>
      <point x="431" y="634"/>
      <point x="477" y="642" type="curve"/>
      <point x="481" y="660" type="line" smooth="yes"/>
      <point x="243" y="660" type="line" smooth="yes"/>
      <point x="239" y="642" type="line"/>
      <point x="279" y="634"/>
      <point x="300" y="613"/>
      <point x="292" y="584" type="curve"/>
      <point x="156" y="76" type="line"/>
      <point x="148" y="47"/>
      <point x="117" y="26"/>
    </contour>
  </outline>
</glyph>
<glyph name="L" format="1">
  <advance width="800"/>
  <unicode hex="004C"/>
  <outline>
    <contour>
      <point x="254" y="28" type="line"/>
      <point x="403" y="584" type="line"/>
      <point x="411" y="613"/>
      <point x="442" y="634"/>
      <point x="488" y="642" type="curve"/>
      <point x="492" y="660" type="line" smooth="yes"/>
      <point x="254" y="660" type="line" smooth="yes"/>
      <point x="250" y="642" type="line"/>
      <point x="290" y="634"/>
      <point x="311" y="613"/>
      <point x="303" y="584" type="curve"/>
      <point x="167" y="76" type="line"/>
      <point x="159" y="47"/>
      <point x="128" y="26"/>
      <point x="82" y="18" type="curve"/>
      <point x="78" y="0" type="line"/>
      <point x="674" y="0" type="line"/>
      <point x="777" y="192" type="line" smooth="yes"/>
      <point x="732" y="192" type="line"/>
      <point x="676" y="77"/>
      <point x="617" y="45"/>
      <point x="497" y="45" type="curve" smooth="yes"/>
      <point x="241" y="45" type="line"/>
    </contour>
  </outline>
</glyph>
<glyph name="M" format="1">
  <advance width="800"/>
  <unicode hex="004D"/>
  <outline>
    <contour>
      <point x="774" y="598" type="line"/>
      <point x="417" y="40" type="line"/>
      <point x="364" y="40" type="line"/>
      <point x="306" y="603" type="line"/>
      <point x="319" y="605" type="line"/>
      <point x="177" y="76" type="line"/>
      <point x="169" y="47"/>
      <point x="190" y="26"/>
      <point x="230" y="18" type="curve"/>
      <point x="226" y="0" type="line" smooth="yes"/>
      <point x="33" y="0" type="line" smooth="yes"/>
      <point x="37" y="18" type="line"/>
      <point x="83" y="26"/>
      <point x="114" y="47"/>
      <point x="122" y="76" type="curve"/>
      <point x="258" y="584" type="line"/>
      <point x="266" y="613"/>
      <point x="245" y="634"/>
      <point x="205" y="642" type="curve"/>
      <point x="209" y="660" type="line"/>
      <point x="396" y="660" type="line"/>
      <point x="446" y="132" type="line"/>
      <point x="424" y="133" type="line"/>
      <point x="760" y="660" type="line"/>
      <point x="947" y="660" type="line"/>
      <point x="943" y="642" type="line"/>
      <point x="897" y="634"/>
      <point x="866" y="613"/>
      <point x="858" y="584" type="curve"/>
      <point x="722" y="76" type="line"/>
      <point x="714" y="47"/>
      <point x="735" y="26"/>
      <point x="775" y="18" type="curve"/>
      <point x="771" y="0" type="line" smooth="yes"/>
      <point x="533" y="0" type="line" smooth="yes"/>
      <point x="537" y="18" type="line"/>
      <point x="583" y="26"/>
      <point x="614" y="47"/>
      <point x="622" y="76" type="curve"/>
      <point x="763" y="601" type="line"/>
    </contour>
  </outline>
</glyph>
<glyph name="N" format="1">
  <advance width="800"/>
  <unicode hex="004E"/>
  <outline>
    <contour>
      <point x="640" y="76" type="line"/>
      <point x="411" y="660" type="line"/>
      <point x="250" y="660" type="line" smooth="yes"/>
      <point x="245" y="642" type="line"/>
      <point x="286" y="634"/>
      <point x="306" y="613"/>
      <point x="298" y="584" type="curve" smooth="yes"/>
      <point x="162" y="76" type="line" smooth="yes"/>
      <point x="155" y="47"/>
      <point x="123" y="26"/>
      <point x="78" y="18" type="curve"/>
      <point x="73" y="0" type="line" smooth="yes"/>
      <point x="266" y="0" type="line" smooth="yes"/>
      <point x="271" y="18" type="line"/>
      <point x="230" y="26"/>
      <point x="210" y="47"/>
      <point x="217" y="76" type="curve" smooth="yes"/>
      <point x="357" y="596" type="line"/>
      <point x="332" y="589" type="line"/>
      <point x="568" y="0" type="line"/>
      <point x="658" y="0" type="line"/>
      <point x="814" y="584" type="line"/>
      <point x="822" y="613"/>
      <point x="854" y="634"/>
      <point x="899" y="642" type="curve"/>
      <point x="904" y="660" type="line" smooth="yes"/>
      <point x="711" y="660" type="line" smooth="yes"/>
      <point x="706" y="642" type="line"/>
      <point x="747" y="634"/>
      <point x="767" y="613"/>
      <point x="759" y="584" type="curve"/>
      <point x="622" y="72" type="line"/>
    </contour>
  </outline>
</glyph>
<glyph name="O" format="1">
  <advance width="800"/>
  <unicode hex="004F"/>
  <outline>
    <contour>
      <point x="551" y="627" type="curve" smooth="yes"/>
      <point x="684" y="627"/>
      <point x="795" y="517"/>
      <point x="739" y="308" type="curve" smooth="yes"/>
      <point x="689" y="123"/>
      <point x="552" y="34"/>
      <point x="432" y="34" type="curve" smooth="yes"/>
      <point x="300" y="34"/>
      <point x="189" y="144"/>
      <point x="245" y="353" type="curve" smooth="yes"/>
      <point x="294" y="538"/>
      <point x="432" y="627"/>
    </contour>
    <contour>
      <point x="857" y="345" type="curve" smooth="yes"/>
      <point x="916" y="565"/>
      <point x="774" y="672"/>
      <point x="599" y="672" type="curve" smooth="yes"/>
      <point x="413" y="672"/>
      <point x="190" y="551"/>
      <point x="127" y="315" type="curve" smooth="yes"/>
      <point x="68" y="95"/>
      <point x="209" y="-12"/>
      <point x="384" y="-12" type="curve" smooth="yes"/>
      <point x="570" y="-12"/>
      <point x="793" y="109"/>
    </contour>
  </outline>
</glyph>
<glyph name="P" format="1">
  <advance width="800"/>
  <unicode hex="0050"/>
  <outline>
    <contour>
      <point x="442" y="660" type="line" smooth="yes"/>
      <point x="430" y="615" type="line" smooth="yes"/>
      <point x="583" y="615" type="line" smooth="yes"/>
      <point x="684" y="615"/>
      <point x="756" y="545"/>
      <point x="732" y="455" type="curve" smooth="yes"/>
      <point x="711" y="377"/>
      <point x="623" y="303"/>
      <point x="497" y="303" type="curve" smooth="yes"/>
      <point x="346" y="303" type="line" smooth="yes"/>
      <point x="334" y="258" type="line" smooth="yes"/>
      <point x="477" y="258" type="line" smooth="yes"/>
      <point x="665" y="258"/>
      <point x="804" y="349"/>
      <point x="837" y="474" type="curve" smooth="yes"/>
      <point x="863" y="571"/>
      <point x="786" y="660"/>
      <point x="645" y="660" type="curve" smooth="yes"/>
    </contour>
    <contour>
      <point x="101" y="18" type="curve"/>
      <point x="96" y="0" type="line" smooth="yes"/>
      <point x="334" y="0" type="line" smooth="yes"/>
      <point x="339" y="18" type="line"/>
      <point x="298" y="26"/>
      <point x="278" y="47"/>
      <point x="285" y="76" type="curve"/>
      <point x="442" y="660" type="line" smooth="yes"/>
      <point x="273" y="660" type="line" smooth="yes"/>
      <point x="268" y="642" type="line"/>
      <point x="309" y="634"/>
      <point x="329" y="613"/>
      <point x="321" y="584" type="curve"/>
      <point x="185" y="76" type="line"/>
      <point x="178" y="47"/>
      <point x="146" y="26"/>
    </contour>
  </outline>
</glyph>
<glyph name="Q" format="1">
  <advance width="800"/>
  <unicode hex="0051"/>
  <outline>
    <contour>
      <point x="503" y="-183" type="curve" smooth="yes"/>
      <point x="627" y="-183"/>
      <point x="749" y="-94"/>
      <point x="749" y="-94" type="curve"/>
      <point x="691" y="-118"/>
      <point x="639" y="-125"/>
      <point x="599" y="-125" type="curve" smooth="yes"/>
      <point x="465" y="-125"/>
      <point x="431" y="-22"/>
      <point x="331" y="-22" type="curve" smooth="yes"/>
      <point x="297" y="-22"/>
      <point x="244" y="-40"/>
      <point x="192" y="-73" type="curve"/>
      <point x="349" y="-62"/>
      <point x="345" y="-183"/>
    </contour>
    <contour>
      <point x="549" y="627" type="curve" smooth="yes"/>
      <point x="682" y="627"/>
      <point x="793" y="517"/>
      <point x="737" y="308" type="curve" smooth="yes"/>
      <point x="687" y="123"/>
      <point x="550" y="34"/>
      <point x="430" y="34" type="curve" smooth="yes"/>
      <point x="298" y="34"/>
      <point x="187" y="144"/>
      <point x="243" y="353" type="curve" smooth="yes"/>
      <point x="292" y="538"/>
      <point x="430" y="627"/>
    </contour>
    <contour>
      <point x="854" y="345" type="curve" smooth="yes"/>
      <point x="913" y="565"/>
      <point x="772" y="672"/>
      <point x="597" y="672" type="curve" smooth="yes"/>
      <point x="411" y="672"/>
      <point x="188" y="551"/>
      <point x="124" y="315" type="curve" smooth="yes"/>
      <point x="65" y="95"/>
      <point x="207" y="-12"/>
      <point x="382" y="-12" type="curve" smooth="yes"/>
      <point x="568" y="-12"/>
      <point x="791" y="109"/>
    </contour>
  </outline>
</glyph>
<glyph name="R" format="1">
  <advance width="800"/>
  <unicode hex="0052"/>
  <outline>
    <contour>
      <point x="421" y="660" type="line" smooth="yes"/>
      <point x="409" y="615" type="line" smooth="yes"/>
      <point x="544" y="615" type="line" smooth="yes"/>
      <point x="645" y="615"/>
      <point x="710" y="555"/>
      <point x="686" y="465" type="curve" smooth="yes"/>
      <point x="663" y="378"/>
      <point x="592" y="333"/>
      <point x="466" y="333" type="curve" smooth="yes"/>
      <point x="333" y="333" type="line" smooth="yes"/>
      <point x="321" y="288" type="line" smooth="yes"/>
      <point x="466" y="288" type="line" smooth="yes"/>
      <point x="654" y="288"/>
      <point x="757" y="357"/>
      <point x="791" y="484" type="curve" smooth="yes"/>
      <point x="817" y="581"/>
      <point x="737" y="660"/>
      <point x="596" y="660" type="curve" smooth="yes"/>
    </contour>
    <contour>
      <point x="443" y="303" type="curve"/>
      <point x="439" y="288" type="line"/>
      <point x="495" y="286"/>
      <point x="553" y="273"/>
      <point x="539" y="175" type="curve" smooth="yes"/>
      <point x="523" y="60"/>
      <point x="526" y="-12"/>
      <point x="626" y="-12" type="curve" smooth="yes"/>
      <point x="716" y="-12"/>
      <point x="747" y="35"/>
      <point x="760" y="110" type="curve"/>
      <point x="735" y="107" type="line"/>
      <point x="725" y="61"/>
      <point x="709" y="31"/>
      <point x="679" y="31" type="curve" smooth="yes"/>
      <point x="648" y="31"/>
      <point x="632" y="75"/>
      <point x="646" y="192" type="curve" smooth="yes"/>
      <point x="661" y="327"/>
      <point x="533" y="303"/>
    </contour>
    <contour>
      <point x="80" y="18" type="curve"/>
      <point x="75" y="0" type="line" smooth="yes"/>
      <point x="313" y="0" type="line" smooth="yes"/>
      <point x="318" y="18" type="line"/>
      <point x="277" y="26"/>
      <point x="257" y="47"/>
      <point x="265" y="76" type="curve"/>
      <point x="421" y="660" type="line" smooth="yes"/>
      <point x="252" y="660" type="line" smooth="yes"/>
      <point x="247" y="642" type="line"/>
      <point x="288" y="634"/>
      <point x="308" y="613"/>
      <point x="301" y="584" type="curve"/>
      <point x="165" y="76" type="line"/>
      <point x="157" y="47"/>
      <point x="125" y="26"/>
    </contour>
  </outline>
</glyph>
<glyph name="S" format="1">
  <advance width="800"/>
  <unicode hex="0053"/>
  <outline>
    <contour>
      <point x="562" y="672" type="move"/>
      <point x="410" y="672"/>
      <point x="265" y="588"/>
      <point x="234" y="473" type="curve" smooth="yes"/>
      <point x="177" y="260"/>
      <point x="704" y="336"/>
      <point x="657" y="151" type="curve" smooth="yes"/>
      <point x="635" y="68"/>
      <point x="539" y="20"/>
      <point x="437" y="20" type="curve" smooth="yes"/>
      <point x="325" y="20"/>
      <point x="207" y="79"/>
      <point x="180" y="213" type="curve"/>
      <point x="143" y="213" type="line"/>
      <point x="87" y="2" type="line"/>
      <point x="120" y="2" type="line"/>
      <point x="168" y="60" type="line"/>
      <point x="258" y="8"/>
      <point x="347" y="-12"/>
      <point x="427" y="-12" type="curve" smooth="yes"/>
      <point x="607" y="-12"/>
      <point x="744" y="90"/>
      <point x="770" y="185" type="curve" smooth="yes"/>
      <point x="832" y="417"/>
      <point x="303" y="328"/>
      <point x="346" y="503" type="curve" smooth="yes"/>
      <point x="364" y="583"/>
      <point x="461" y="629"/>
      <point x="559" y="629" type="curve" smooth="yes"/>
      <point x="667" y="629"/>
      <point x="775" y="574"/>
      <point x="786" y="449" type="curve"/>
      <point x="815" y="449" type="line"/>
      <point x="868" y="648" type="line"/>
      <point x="842" y="648" type="line"/>
      <point x="786" y="600" type="line"/>
      <point x="723" y="649"/>
      <point x="646" y="672"/>
      <point x="562" y="672" type="curve"/>
    </contour>
  </outline>
</glyph>
<glyph name="T" format="1">
  <advance width="800"/>
  <unicode hex="0054"/>
  <outline>
    <contour>
      <point x="160" y="468" type="line" smooth="yes"/>
      <point x="205" y="468" type="line"/>
      <point x="261" y="583"/>
      <point x="321" y="615"/>
      <point x="441" y="615" type="curve" smooth="yes"/>
      <point x="689" y="615" type="line" smooth="yes"/>
      <point x="809" y="615"/>
      <point x="851" y="583"/>
      <point x="845" y="468" type="curve"/>
      <point x="890" y="468" type="line" smooth="yes"/>
      <point x="890" y="660" type="line"/>
      <point x="264" y="660" type="line"/>
    </contour>
    <contour>
      <point x="286" y="18" type="curve"/>
      <point x="281" y="0" type="line" smooth="yes"/>
      <point x="519" y="0" type="line" smooth="yes"/>
      <point x="524" y="18" type="line"/>
      <point x="484" y="26"/>
      <point x="463" y="47"/>
      <point x="470" y="76" type="curve" smooth="yes"/>
      <point x="627" y="660" type="line" smooth="yes"/>
      <point x="527" y="660" type="line" smooth="yes"/>
      <point x="370" y="76" type="line" smooth="yes"/>
      <point x="363" y="47"/>
      <point x="331" y="26"/>
    </contour>
  </outline>
</glyph>
<glyph name="U" format="1">
  <advance width="800"/>
  <unicode hex="0055"/>
  <outline>
    <contour>
      <point x="407" y="-12" type="curve" smooth="yes"/>
      <point x="569" y="-12"/>
      <point x="712" y="97"/>
      <point x="755" y="258" type="curve" smooth="yes"/>
      <point x="843" y="584" type="line" smooth="yes"/>
      <point x="850" y="613"/>
      <point x="882" y="634"/>
      <point x="927" y="642" type="curve"/>
      <point x="932" y="660" type="line" smooth="yes"/>
      <point x="739" y="660" type="line" smooth="yes"/>
      <point x="734" y="642" type="line"/>
      <point x="775" y="634"/>
      <point x="795" y="613"/>
      <point x="788" y="584" type="curve" smooth="yes"/>
      <point x="696" y="242" type="line" smooth="yes"/>
      <point x="667" y="132"/>
      <point x="544" y="35"/>
      <point x="445" y="35" type="curve" smooth="yes"/>
      <point x="332" y="35"/>
      <point x="253" y="124"/>
      <point x="285" y="242" type="curve" smooth="yes"/>
      <point x="377" y="584" type="line" smooth="yes"/>
      <point x="384" y="613"/>
      <point x="416" y="634"/>
      <point x="461" y="642" type="curve"/>
      <point x="466" y="660" type="line" smooth="yes"/>
      <point x="228" y="660" type="line" smooth="yes"/>
      <point x="223" y="642" type="line"/>
      <point x="264" y="634"/>
      <point x="284" y="613"/>
      <point x="277" y="584" type="curve" smooth="yes"/>
      <point x="180" y="224" type="line" smooth="yes"/>
      <point x="142" y="82"/>
      <point x="252" y="-12"/>
    </contour>
  </outline>
</glyph>
<glyph name="V" format="1">
  <advance width="800"/>
  <unicode hex="0056"/>
  <outline>
    <contour>
      <point x="461" y="100" type="line"/>
      <point x="381" y="585" type="line" smooth="yes"/>
      <point x="376" y="618"/>
      <point x="412" y="634"/>
      <point x="456" y="642" type="curve"/>
      <point x="461" y="660" type="line" smooth="yes"/>
      <point x="214" y="660" type="line" smooth="yes"/>
      <point x="209" y="642" type="line"/>
      <point x="256" y="632"/>
      <point x="269" y="615"/>
      <point x="274" y="585" type="curve" smooth="yes"/>
      <point x="369" y="0" type="line"/>
      <point x="416" y="0" type="line" smooth="yes"/>
      <point x="824" y="585" type="line" smooth="yes"/>
      <point x="847" y="618"/>
      <point x="892" y="636"/>
      <point x="933" y="642" type="curve"/>
      <point x="938" y="660" type="line" smooth="yes"/>
      <point x="730" y="660" type="line" smooth="yes"/>
      <point x="725" y="642" type="line"/>
      <point x="768" y="636"/>
      <point x="788" y="617"/>
      <point x="766" y="585" type="curve" smooth="yes"/>
      <point x="429" y="100" type="line"/>
    </contour>
  </outline>
</glyph>
<glyph name="W" format="1">
  <advance width="800"/>
  <unicode hex="0057"/>
  <outline>
    <contour>
      <point x="522" y="472" type="line"/>
      <point x="502" y="-12" type="line"/>
      <point x="581" y="-12" type="line"/>
      <point x="874" y="582" type="line" smooth="yes"/>
      <point x="894" y="622"/>
      <point x="930" y="636"/>
      <point x="975" y="642" type="curve"/>
      <point x="980" y="660" type="line" smooth="yes"/>
      <point x="816" y="660" type="line" smooth="yes"/>
      <point x="811" y="642" type="line"/>
      <point x="841" y="637"/>
      <point x="847" y="621"/>
      <point x="827" y="582" type="curve" smooth="yes"/>
      <point x="580" y="83" type="line"/>
      <point x="600" y="83" type="line"/>
      <point x="621" y="569" type="line"/>
      <point x="542" y="569" type="line"/>
      <point x="300" y="82" type="line"/>
      <point x="321" y="82" type="line"/>
      <point x="340" y="586" type="line" smooth="yes"/>
      <point x="342" y="627"/>
      <point x="358" y="643"/>
      <point x="398" y="643" type="curve"/>
      <point x="402" y="660" type="line" smooth="yes"/>
      <point x="180" y="660" type="line" smooth="yes"/>
      <point x="175" y="642" type="line"/>
      <point x="222" y="640"/>
      <point x="247" y="633"/>
      <point x="245" y="586" type="curve" smooth="yes"/>
      <point x="222" y="-12" type="line"/>
      <point x="302" y="-12" type="line"/>
      <point x="542" y="472" type="line"/>
    </contour>
  </outline>
</glyph>
<glyph name="X" format="1">
  <advance width="800"/>
  <unicode hex="0058"/>
  <outline>
    <contour>
      <point x="556" y="75" type="line" smooth="yes"/>
      <point x="580" y="28"/>
      <point x="558" y="17"/>
      <point x="509" y="17" type="curve"/>
      <point x="504" y="0" type="line" smooth="yes"/>
      <point x="760" y="0" type="line" smooth="yes"/>
      <point x="765" y="18" type="line"/>
      <point x="718" y="20"/>
      <point x="690" y="40"/>
      <point x="672" y="75" type="curve" smooth="yes"/>
      <point x="421" y="585" type="line" smooth="yes"/>
      <point x="397" y="632"/>
      <point x="419" y="643"/>
      <point x="468" y="643" type="curve"/>
      <point x="473" y="660" type="line" smooth="yes"/>
      <point x="217" y="660" type="line" smooth="yes"/>
      <point x="212" y="642" type="line"/>
      <point x="258" y="640"/>
      <point x="287" y="620"/>
      <point x="305" y="585" type="curve" smooth="yes"/>
    </contour>
    <contour>
      <point x="164" y="75" type="line" smooth="yes"/>
      <point x="125" y="39"/>
      <point x="85" y="24"/>
      <point x="45" y="18" type="curve"/>
      <point x="40" y="0" type="line" smooth="yes"/>
      <point x="240" y="0" type="line" smooth="yes"/>
      <point x="245" y="18" type="line"/>
      <point x="201" y="24"/>
      <point x="185" y="39"/>
      <point x="224" y="75" type="curve" smooth="yes"/>
      <point x="481" y="316" type="line" smooth="yes"/>
      <point x="449" y="337" type="line" smooth="yes"/>
    </contour>
    <contour>
      <point x="813" y="585" type="line" smooth="yes"/>
      <point x="851" y="621"/>
      <point x="891" y="636"/>
      <point x="932" y="642" type="curve"/>
      <point x="937" y="660" type="line" smooth="yes"/>
      <point x="737" y="660" type="line" smooth="yes"/>
      <point x="732" y="642" type="line"/>
      <point x="775" y="636"/>
      <point x="792" y="622"/>
      <point x="753" y="585" type="curve" smooth="yes"/>
      <point x="496" y="344" type="line" smooth="yes"/>
      <point x="528" y="323" type="line" smooth="yes"/>
    </contour>
  </outline>
</glyph>
<glyph name="Y" format="1">
  <advance width="800"/>
  <unicode hex="0059"/>
  <outline>
    <contour>
      <point x="286" y="18" type="curve"/>
      <point x="281" y="0" type="line" smooth="yes"/>
      <point x="519" y="0" type="line" smooth="yes"/>
      <point x="524" y="18" type="line"/>
      <point x="483" y="26"/>
      <point x="463" y="47"/>
      <point x="470" y="76" type="curve" smooth="yes"/>
      <point x="516" y="245" type="line" smooth="yes"/>
      <point x="525" y="281"/>
      <point x="548" y="313"/>
      <point x="577" y="344" type="curve" smooth="yes"/>
      <point x="809" y="585" type="line" smooth="yes"/>
      <point x="845" y="623"/>
      <point x="897" y="636"/>
      <point x="938" y="642" type="curve"/>
      <point x="943" y="660" type="line"/>
      <point x="739" y="660" type="line"/>
      <point x="734" y="642" type="line"/>
      <point x="777" y="636"/>
      <point x="787" y="621"/>
      <point x="754" y="585" type="curve" smooth="yes"/>
      <point x="511" y="329" type="line"/>
      <point x="398" y="585" type="line" smooth="yes"/>
      <point x="377" y="633"/>
      <point x="396" y="643"/>
      <point x="445" y="643" type="curve"/>
      <point x="450" y="660" type="line"/>
      <point x="211" y="660" type="line"/>
      <point x="206" y="642" type="line"/>
      <point x="252" y="640"/>
      <point x="283" y="621"/>
      <point x="299" y="585" type="curve" smooth="yes"/>
      <point x="401" y="349" type="line" smooth="yes"/>
      <point x="415" y="316"/>
      <point x="425" y="279"/>
      <point x="414" y="238" type="curve" smooth="yes"/>
      <point x="370" y="76" type="line" smooth="yes"/>
      <point x="363" y="47"/>
      <point x="331" y="26"/>
    </contour>
  </outline>
</glyph>
<glyph name="Z" format="1">
  <advance width="800"/>
  <unicode hex="005A"/>
  <outline>
    <contour>
      <point x="185" y="25" type="line"/>
      <point x="853" y="623" type="line" smooth="yes"/>
      <point x="863" y="660" type="line"/>
      <point x="287" y="660" type="line" smooth="yes"/>
      <point x="210" y="516" type="line" smooth="yes"/>
      <point x="246" y="516" type="line"/>
      <point x="291" y="592"/>
      <point x="340" y="618"/>
      <point x="465" y="618" type="curve"/>
      <point x="759" y="618" type="line"/>
      <point x="750" y="640" type="line"/>
      <point x="76" y="37" type="line" smooth="yes"/>
      <point x="66" y="0" type="line"/>
      <point x="688" y="0" type="line" smooth="yes"/>
      <point x="789" y="184" type="line" smooth="yes"/>
      <point x="753" y="184" type="line"/>
      <point x="695" y="73"/>
      <point x="604" y="43"/>
      <point x="511" y="43" type="curve"/>
      <point x="180" y="43" type="line"/>
    </contour>
  </outline>
</glyph>
<glyph name="backslash" format="1">
  <advance width="800"/>
  <unicode hex="005C"/>
  <outline>
    <contour>
      <point x="600" y="-192" type="line" smooth="yes"/>
      <point x="357" y="692" type="line" smooth="yes"/>
      <point x="437" y="692" type="line" smooth="yes"/>
      <point x="680" y="-192" type="line" smooth="yes"/>
    </contour>
  </outline>
</glyph>
<glyph name="bracketright" format="1">
  <advance width="800"/>
  <unicode hex="005D"/>
  <outline>
    <contour>
      <point x="555" y="-192" type="line" smooth="yes"/>
      <point x="180" y="-192" type="line" smooth="yes"/>
      <point x="190" y="-155" type="line" smooth="yes"/>
      <point x="565" y="-155" type="line" smooth="yes"/>
    </contour>
    <contour>
      <point x="782" y="655" type="line" smooth="yes"/>
      <point x="407" y="655" type="line" smooth="yes"/>
      <point x="417" y="692" type="line" smooth="yes"/>
      <point x="792" y="692" type="line" smooth="yes"/>
    </contour>
    <contour>
      <point x="467" y="-192" type="line" smooth="yes"/>
      <point x="704" y="692" type="line" smooth="yes"/>
      <point x="792" y="692" type="line" smooth="yes"/>
      <point x="555" y="-192" type="line" smooth="yes"/>
    </contour>
  </outline>
</glyph>
<glyph name="grave" format="1">
  <advance width="800"/>
  <unicode hex="0060"/>
  <outline>
    <contour>
      <point x="439" y="677" type="line"/>
      <point x="424" y="696"/>
      <point x="392" y="696"/>
      <point x="366" y="676" type="curve" smooth="yes"/>
      <point x="341" y="656"/>
      <point x="328" y="620"/>
      <point x="347" y="604" type="curve" smooth="yes"/>
      <point x="474" y="493" type="line" smooth="yes"/>
      <point x="507" y="519" type="line" smooth="yes"/>
    </contour>
  </outline>
</glyph>
<glyph name="a" format="1">
  <advance width="800"/>
  <unicode hex="0061"/>
  <outline>
    <contour>
      <point x="534" y="73" type="curve"/>
      <point x="546" y="144" type="line"/>
      <point x="515" y="85"/>
      <point x="450" y="41"/>
      <point x="386" y="41" type="curve" smooth="yes"/>
      <point x="314" y="41"/>
      <point x="256" y="116"/>
      <point x="256" y="209" type="curve" smooth="yes"/>
      <point x="256" y="352"/>
      <point x="359" y="468"/>
      <point x="485" y="468" type="curve" smooth="yes"/>
      <point x="547" y="468"/>
      <point x="578" y="408"/>
      <point x="588" y="347" type="curve"/>
      <point x="620" y="441" type="line"/>
      <point x="590" y="482"/>
      <point x="545" y="511"/>
      <point x="493" y="511" type="curve" smooth="yes"/>
      <point x="334" y="511"/>
      <point x="162" y="361"/>
      <point x="162" y="179" type="curve" smooth="yes"/>
      <point x="162" y="86"/>
      <point x="233" y="-12"/>
      <point x="348" y="-12" type="curve" smooth="yes"/>
      <point x="422" y="-12"/>
      <point x="490" y="29"/>
    </contour>
    <contour>
      <point x="600" y="443" type="curve"/>
      <point x="513" y="121" type="line" smooth="yes"/>
      <point x="493" y="46"/>
      <point x="545" y="-11"/>
      <point x="604" y="-11" type="curve" smooth="yes"/>
      <point x="680" y="-11"/>
      <point x="753" y="127"/>
      <point x="763" y="191" type="curve"/>
      <point x="726" y="199" type="line"/>
      <point x="711" y="144"/>
      <point x="669" y="64"/>
      <point x="627" y="64" type="curve" smooth="yes"/>
      <point x="603" y="64"/>
      <point x="587" y="93"/>
      <point x="595" y="121" type="curve" smooth="yes"/>
      <point x="697" y="500" type="line"/>
      <point x="651" y="500" type="line"/>
      <point x="642" y="473"/>
      <point x="613" y="440"/>
    </contour>
  </outline>
</glyph>
<glyph name="b" format="1">
  <advance width="800"/>
  <unicode hex="0062"/>
  <outline>
    <contour>
      <point x="510" y="294" type="curve" smooth="yes"/>
      <point x="608" y="294"/>
      <point x="756" y="390"/>
      <point x="842" y="508" type="curve"/>
      <point x="871" y="493" type="line"/>
      <point x="791" y="359"/>
      <point x="618" y="249"/>
      <point x="486" y="249" type="curve" smooth="yes"/>
      <point x="430" y="249"/>
      <point x="385" y="283"/>
      <point x="385" y="325" type="curve" smooth="yes"/>
      <point x="385" y="407"/>
      <point x="456" y="474"/>
      <point x="543" y="474" type="curve" smooth="yes"/>
      <point x="660" y="474"/>
      <point x="728" y="373"/>
      <point x="699" y="246" type="curve" smooth="yes"/>
      <point x="664" y="102"/>
      <point x="524" y="-12"/>
      <point x="386" y="-12" type="curve" smooth="yes"/>
      <point x="259" y="-12"/>
      <point x="169" y="104"/>
      <point x="203" y="229" type="curve" smooth="yes"/>
      <point x="321" y="662" type="line" smooth="yes"/>
      <point x="333" y="704"/>
      <point x="318" y="719"/>
      <point x="261" y="719" type="curve"/>
      <point x="265" y="738" type="line"/>
      <point x="319" y="739"/>
      <point x="374" y="743"/>
      <point x="418" y="750" type="curve"/>
      <point x="432" y="738" type="line"/>
      <point x="293" y="229" type="line" smooth="yes"/>
      <point x="263" y="118"/>
      <point x="306" y="27"/>
      <point x="389" y="27" type="curve" smooth="yes"/>
      <point x="502" y="27"/>
      <point x="578" y="145"/>
      <point x="612" y="262" type="curve" smooth="yes"/>
      <point x="639" y="357"/>
      <point x="597" y="434"/>
      <point x="519" y="434" type="curve" smooth="yes"/>
      <point x="480" y="434"/>
      <point x="448" y="397"/>
      <point x="448" y="352" type="curve" smooth="yes"/>
      <point x="448" y="320"/>
      <point x="476" y="294"/>
    </contour>
  </outline>
</glyph>
<glyph name="c" format="1">
  <advance width="800"/>
  <unicode hex="0063"/>
  <outline>
    <contour>
      <point x="475" y="39" type="curve" smooth="yes"/>
      <point x="359" y="39"/>
      <point x="279" y="140"/>
      <point x="313" y="264" type="curve" smooth="yes"/>
      <point x="341" y="378"/>
      <point x="446" y="471"/>
      <point x="547" y="471" type="curve" smooth="yes"/>
      <point x="612" y="471"/>
      <point x="665" y="445"/>
      <point x="665" y="412" type="curve" smooth="yes"/>
      <point x="665" y="389"/>
      <point x="647" y="390"/>
      <point x="647" y="369" type="curve" smooth="yes"/>
      <point x="647" y="350"/>
      <point x="670" y="333"/>
      <point x="695" y="333" type="curve" smooth="yes"/>
      <point x="731" y="333"/>
      <point x="757" y="361"/>
      <point x="757" y="397" type="curve" smooth="yes"/>
      <point x="757" y="460"/>
      <point x="676" y="511"/>
      <point x="577" y="511" type="curve" smooth="yes"/>
      <point x="415" y="511"/>
      <point x="250" y="388"/>
      <point x="209" y="236" type="curve" smooth="yes"/>
      <point x="173" y="102"/>
      <point x="282" y="-11"/>
      <point x="438" y="-11" type="curve" smooth="yes"/>
      <point x="534" y="-11"/>
      <point x="623" y="26"/>
      <point x="690" y="95" type="curve"/>
      <point x="644" y="117" type="line"/>
      <point x="602" y="75"/>
      <point x="551" y="39"/>
    </contour>
  </outline>
</glyph>
<glyph name="d" format="1">
  <advance width="800"/>
  <unicode hex="0064"/>
  <outline>
    <contour>
      <point x="521" y="73" type="curve"/>
      <point x="533" y="144" type="line"/>
      <point x="502" y="85"/>
      <point x="437" y="41"/>
      <point x="373" y="41" type="curve" smooth="yes"/>
      <point x="301" y="41"/>
      <point x="243" y="116"/>
      <point x="243" y="209" type="curve" smooth="yes"/>
      <point x="243" y="352"/>
      <point x="346" y="468"/>
      <point x="472" y="468" type="curve" smooth="yes"/>
      <point x="520" y="468"/>
      <point x="575" y="426"/>
      <point x="594" y="374" type="curve"/>
      <point x="614" y="444" type="line"/>
      <point x="586" y="481"/>
      <point x="526" y="511"/>
      <point x="480" y="511" type="curve" smooth="yes"/>
      <point x="321" y="511"/>
      <point x="149" y="361"/>
      <point x="149" y="179" type="curve" smooth="yes"/>
      <point x="149" y="86"/>
      <point x="220" y="-12"/>
      <point x="335" y="-12" type="curve" smooth="yes"/>
      <point x="409" y="-12"/>
      <point x="477" y="29"/>
    </contour>
    <contour>
      <point x="611" y="121" type="curve" smooth="yes"/>
      <point x="779" y="738" type="line"/>
      <point x="765" y="750" type="line"/>
      <point x="721" y="743"/>
      <point x="666" y="739"/>
      <point x="612" y="738" type="curve"/>
      <point x="608" y="719" type="line"/>
      <point x="665" y="719"/>
      <point x="680" y="704"/>
      <point x="668" y="662" type="curve" smooth="yes"/>
      <point x="521" y="121" type="line" smooth="yes"/>
      <point x="501" y="46"/>
      <point x="561" y="-11"/>
      <point x="620" y="-11" type="curve" smooth="yes"/>
      <point x="696" y="-11"/>
      <point x="769" y="127"/>
      <point x="779" y="191" type="curve"/>
      <point x="742" y="199" type="line"/>
      <point x="727" y="144"/>
      <point x="685" y="64"/>
      <point x="643" y="64" type="curve" smooth="yes"/>
      <point x="619" y="64"/>
      <point x="603" y="93"/>
    </contour>
  </outline>
</glyph>
<glyph name="e" format="1">
  <advance width="800"/>
  <unicode hex="0065"/>
  <outline>
    <contour>
      <point x="533" y="476" type="curve" smooth="yes"/>
      <point x="594" y="476"/>
      <point x="646" y="435"/>
      <point x="646" y="373" type="curve" smooth="yes"/>
      <point x="646" y="330"/>
      <point x="610" y="294"/>
      <point x="529" y="287" type="curve" smooth="yes"/>
      <point x="479" y="283"/>
      <point x="369" y="277"/>
      <point x="290" y="277" type="curve"/>
      <point x="290" y="241" type="line"/>
      <point x="370" y="241"/>
      <point x="529" y="248"/>
      <point x="604" y="266" type="curve" smooth="yes"/>
      <point x="687" y="286"/>
      <point x="736" y="318"/>
      <point x="736" y="380" type="curve" smooth="yes"/>
      <point x="736" y="435"/>
      <point x="680" y="511"/>
      <point x="542" y="511" type="curve" smooth="yes"/>
      <point x="365" y="511"/>
      <point x="188" y="337"/>
      <point x="188" y="163" type="curve" smooth="yes"/>
      <point x="188" y="58"/>
      <point x="279" y="-12"/>
      <point x="416" y="-12" type="curve" smooth="yes"/>
      <point x="532" y="-12"/>
      <point x="669" y="54"/>
      <point x="722" y="135" type="curve"/>
      <point x="694" y="158" type="line"/>
      <point x="656" y="96"/>
      <point x="537" y="33"/>
      <point x="448" y="33" type="curve" smooth="yes"/>
      <point x="355" y="33"/>
      <point x="297" y="97"/>
      <point x="297" y="198" type="curve" smooth="yes"/>
      <point x="297" y="326"/>
      <point x="421" y="476"/>
    </contour>
  </outline>
</glyph>
<glyph name="f" format="1">
  <advance width="800"/>
  <unicode hex="0066"/>
  <outline>
    <contour>
      <point x="728" y="711" type="curve" smooth="yes"/>
      <point x="776" y="711"/>
      <point x="787" y="677"/>
      <point x="787" y="639" type="curve" smooth="yes"/>
      <point x="787" y="620"/>
      <point x="811" y="603"/>
      <point x="837" y="603" type="curve" smooth="yes"/>
      <point x="867" y="603"/>
      <point x="891" y="629"/>
      <point x="891" y="663" type="curve" smooth="yes"/>
      <point x="891" y="713"/>
      <point x="822" y="750"/>
      <point x="770" y="750" type="curve" smooth="yes"/>
      <point x="624" y="750"/>
      <point x="480" y="635"/>
      <point x="444" y="473" type="curve" smooth="yes"/>
      <point x="350" y="48" type="line" smooth="yes"/>
      <point x="314" y="-114"/>
      <point x="240" y="-218"/>
      <point x="182" y="-218" type="curve" smooth="yes"/>
      <point x="143" y="-218"/>
      <point x="112" y="-195"/>
      <point x="103" y="-167" type="curve" smooth="yes"/>
      <point x="100" y="-157"/>
      <point x="84" y="-148"/>
      <point x="68" y="-148" type="curve" smooth="yes"/>
      <point x="35" y="-148"/>
      <point x="26" y="-171"/>
      <point x="46" y="-199" type="curve" smooth="yes"/>
      <point x="74" y="-238"/>
      <point x="118" y="-249"/>
      <point x="165" y="-249" type="curve" smooth="yes"/>
      <point x="283" y="-249"/>
      <point x="400" y="-134"/>
      <point x="440" y="48" type="curve" smooth="yes"/>
      <point x="534" y="473" type="line" smooth="yes"/>
      <point x="569" y="629"/>
      <point x="643" y="711"/>
    </contour>
    <contour>
      <point x="300" y="426" type="line"/>
      <point x="655" y="426" type="line"/>
      <point x="669" y="476" type="line"/>
      <point x="314" y="476" type="line"/>
    </contour>
  </outline>
</glyph>
<glyph name="g" format="1">
  <advance width="800"/>
  <unicode hex="0067"/>
  <outline>
    <contour>
      <point x="615" y="96" type="curve"/>
      <point x="627" y="170" type="line"/>
      <point x="593" y="106"/>
      <point x="511" y="54"/>
      <point x="444" y="54" type="curve" smooth="yes"/>
      <point x="365" y="54"/>
      <point x="300" y="123"/>
      <point x="300" y="209" type="curve" smooth="yes"/>
      <point x="300" y="352"/>
      <point x="410" y="468"/>
      <point x="546" y="468" type="curve" smooth="yes"/>
      <point x="601" y="468"/>
      <point x="656" y="425"/>
      <point x="672" y="368" type="curve"/>
      <point x="692" y="438" type="line"/>
      <point x="660" y="483"/>
      <point x="597" y="511"/>
      <point x="537" y="511" type="curve" smooth="yes"/>
      <point x="354" y="511"/>
      <point x="206" y="362"/>
      <point x="206" y="179" type="curve" smooth="yes"/>
      <point x="206" y="81"/>
      <point x="294" y="1"/>
      <point x="402" y="1" type="curve" smooth="yes"/>
      <point x="475" y="1"/>
      <point x="554" y="35"/>
    </contour>
    <contour>
      <point x="688" y="443" type="curve"/>
      <point x="560" y="-12" type="line" smooth="yes"/>
      <point x="527" y="-131"/>
      <point x="432" y="-216"/>
      <point x="342" y="-216" type="curve" smooth="yes"/>
      <point x="275" y="-216"/>
      <point x="220" y="-189"/>
      <point x="220" y="-155" type="curve" smooth="yes"/>
      <point x="220" y="-127"/>
      <point x="234" y="-121"/>
      <point x="237" y="-92" type="curve" smooth="yes"/>
      <point x="240" y="-62"/>
      <point x="211" y="-45"/>
      <point x="190" y="-45" type="curve" smooth="yes"/>
      <point x="140" y="-45"/>
      <point x="114" y="-88"/>
      <point x="114" y="-126" type="curve" smooth="yes"/>
      <point x="114" y="-200"/>
      <point x="205" y="-250"/>
      <point x="340" y="-250" type="curve" smooth="yes"/>
      <point x="474" y="-250"/>
      <point x="617" y="-132"/>
      <point x="648" y="-22" type="curve" smooth="yes"/>
      <point x="795" y="500" type="line"/>
      <point x="749" y="500" type="line"/>
      <point x="740" y="473"/>
      <point x="709" y="443"/>
    </contour>
  </outline>
</glyph>
<glyph name="h" format="1">
  <advance width="800"/>
  <unicode hex="0068"/>
  <note>
    Version created Thu Nov  2 02:44:05 2017
  </note>
  <outline>
    <contour>
      <point x="623" y="118" type="line" smooth="yes"/>
      <point x="614" y="83"/>
      <point x="627" y="55"/>
      <point x="653" y="55" type="curve" smooth="yes"/>
      <point x="687" y="55"/>
      <point x="733" y="120"/>
      <point x="754" y="199" type="curve"/>
      <point x="791" y="191" type="line"/>
      <point x="773" y="79"/>
      <point x="699" y="-12"/>
      <point x="624" y="-12" type="curve" smooth="yes"/>
      <point x="555" y="-12"/>
      <point x="514" y="46"/>
      <point x="533" y="118" type="curve" smooth="yes"/>
      <point x="599" y="363" type="line" smooth="yes"/>
      <point x="609" y="400"/>
      <point x="591" y="430"/>
      <point x="560" y="430" type="curve" smooth="yes"/>
      <point x="510" y="430"/>
      <point x="426" y="378"/>
      <point x="326" y="265" type="curve"/>
      <point x="306" y="291" type="line"/>
      <point x="429" y="439"/>
      <point x="527" y="511"/>
      <point x="607" y="511" type="curve" smooth="yes"/>
      <point x="674" y="511"/>
      <point x="711" y="445"/>
      <point x="689" y="363" type="curve" smooth="yes"/>
    </contour>
    <contour>
      <point x="359" y="662" type="line" smooth="yes"/>
      <point x="371" y="704"/>
      <point x="356" y="719"/>
      <point x="299" y="719" type="curve"/>
      <point x="303" y="738" type="line"/>
      <point x="357" y="739"/>
      <point x="412" y="743"/>
      <point x="456" y="750" type="curve"/>
      <point x="470" y="738" type="line"/>
      <point x="260" y="0" type="line"/>
      <point x="170" y="0" type="line"/>
    </contour>
  </outline>
</glyph>
<glyph name="i" format="1">
  <advance width="800"/>
  <unicode hex="0069"/>
  <outline>
    <contour>
      <point x="642" y="678" type="curve" smooth="yes"/>
      <point x="633" y="645"/>
      <point x="599" y="618"/>
      <point x="566" y="618" type="curve" smooth="yes"/>
      <point x="533" y="618"/>
      <point x="513" y="645"/>
      <point x="522" y="678" type="curve" smooth="yes"/>
      <point x="531" y="711"/>
      <point x="565" y="738"/>
      <point x="598" y="738" type="curve" smooth="yes"/>
      <point x="631" y="738"/>
      <point x="651" y="711"/>
    </contour>
    <contour>
      <point x="378" y="118" type="curve" smooth="yes"/>
      <point x="465" y="439" type="line" smooth="yes"/>
      <point x="469" y="455"/>
      <point x="462" y="470"/>
      <point x="450" y="470" type="curve" smooth="yes"/>
      <point x="391" y="470"/>
      <point x="289" y="406"/>
      <point x="289" y="358" type="curve" smooth="yes"/>
      <point x="289" y="341"/>
      <point x="301" y="327"/>
      <point x="301" y="313" type="curve" smooth="yes"/>
      <point x="301" y="290"/>
      <point x="278" y="273"/>
      <point x="255" y="273" type="curve" smooth="yes"/>
      <point x="224" y="273"/>
      <point x="198" y="294"/>
      <point x="198" y="332" type="curve" smooth="yes"/>
      <point x="198" y="406"/>
      <point x="394" y="512"/>
      <point x="504" y="512" type="curve" smooth="yes"/>
      <point x="533" y="512" type="line" smooth="yes"/>
      <point x="554" y="512"/>
      <point x="570" y="492"/>
      <point x="564" y="471" type="curve" smooth="yes"/>
      <point x="468" y="118" type="line" smooth="yes"/>
      <point x="459" y="83"/>
      <point x="464" y="34"/>
      <point x="507" y="34" type="curve" smooth="yes"/>
      <point x="568" y="34"/>
      <point x="648" y="84"/>
      <point x="685" y="145" type="curve"/>
      <point x="719" y="132" type="line"/>
      <point x="671" y="45"/>
      <point x="579" y="-12"/>
      <point x="484" y="-12" type="curve" smooth="yes"/>
      <point x="400" y="-12"/>
      <point x="358" y="46"/>
    </contour>
  </outline>
</glyph>
<glyph name="j" format="1">
  <advance width="800"/>
  <unicode hex="006A"/>
  <outline>
    <contour>
      <point x="700" y="678" type="curve" smooth="yes"/>
      <point x="691" y="645"/>
      <point x="657" y="618"/>
      <point x="624" y="618" type="curve" smooth="yes"/>
      <point x="591" y="618"/>
      <point x="571" y="645"/>
      <point x="580" y="678" type="curve" smooth="yes"/>
      <point x="589" y="711"/>
      <point x="623" y="738"/>
      <point x="656" y="738" type="curve" smooth="yes"/>
      <point x="689" y="738"/>
      <point x="709" y="711"/>
    </contour>
    <contour>
      <point x="551" y="0" type="line" smooth="yes"/>
      <point x="526" y="-117"/>
      <point x="366" y="-238"/>
      <point x="253" y="-238" type="curve" smooth="yes"/>
      <point x="181" y="-238"/>
      <point x="140" y="-203"/>
      <point x="118" y="-172" type="curve" smooth="yes"/>
      <point x="98" y="-144"/>
      <point x="114" y="-109"/>
      <point x="147" y="-109" type="curve" smooth="yes"/>
      <point x="170" y="-109"/>
      <point x="193" y="-124"/>
      <point x="199" y="-144" type="curve" smooth="yes"/>
      <point x="207" y="-171"/>
      <point x="251" y="-192"/>
      <point x="279" y="-192" type="curve" smooth="yes"/>
      <point x="350" y="-192"/>
      <point x="440" y="-96"/>
      <point x="461" y="0" type="curve" smooth="yes"/>
      <point x="555" y="439" type="line" smooth="yes"/>
      <point x="558" y="455"/>
      <point x="552" y="470"/>
      <point x="540" y="470" type="curve" smooth="yes"/>
      <point x="481" y="470"/>
      <point x="379" y="406"/>
      <point x="379" y="358" type="curve" smooth="yes"/>
      <point x="379" y="341"/>
      <point x="391" y="327"/>
      <point x="391" y="313" type="curve" smooth="yes"/>
      <point x="391" y="290"/>
      <point x="368" y="273"/>
      <point x="345" y="273" type="curve" smooth="yes"/>
      <point x="314" y="273"/>
      <point x="288" y="294"/>
      <point x="288" y="332" type="curve" smooth="yes"/>
      <point x="288" y="406"/>
      <point x="484" y="512"/>
      <point x="594" y="512" type="curve" smooth="yes"/>
      <point x="623" y="512" type="line" smooth="yes"/>
      <point x="644" y="512"/>
      <point x="656" y="492"/>
      <point x="652" y="471" type="curve" smooth="yes"/>
    </contour>
  </outline>
</glyph>
<glyph name="k" format="1">
  <advance width="800"/>
  <unicode hex="006B"/>
  <outline>
    <contour>
      <point x="382" y="258" type="curve" smooth="yes"/>
      <point x="376" y="263"/>
      <point x="379" y="276"/>
      <point x="387" y="278" type="curve" smooth="yes"/>
      <point x="555" y="314"/>
      <point x="627" y="356"/>
      <point x="627" y="418" type="curve" smooth="yes"/>
      <point x="627" y="460"/>
      <point x="604" y="492"/>
      <point x="567" y="492" type="curve" smooth="yes"/>
      <point x="524" y="492"/>
      <point x="394" y="373"/>
      <point x="348" y="321" type="curve"/>
      <point x="335" y="345" type="line"/>
      <point x="382" y="397"/>
      <point x="502" y="524"/>
      <point x="592" y="524" type="curve" smooth="yes"/>
      <point x="655" y="524"/>
      <point x="719" y="487"/>
      <point x="714" y="421" type="curve" smooth="yes"/>
      <point x="708" y="348"/>
      <point x="580" y="289"/>
      <point x="489" y="267" type="curve"/>
      <point x="558" y="187"/>
      <point x="628" y="66"/>
      <point x="699" y="66" type="curve" smooth="yes"/>
      <point x="744" y="66"/>
      <point x="776" y="120"/>
      <point x="795" y="146" type="curve"/>
      <point x="823" y="134" type="line"/>
      <point x="800" y="88"/>
      <point x="735" y="-12"/>
      <point x="660" y="-12" type="curve" smooth="yes"/>
      <point x="523" y="-12"/>
      <point x="465" y="186"/>
    </contour>
    <contour>
      <point x="368" y="662" type="line" smooth="yes"/>
      <point x="380" y="704"/>
      <point x="365" y="719"/>
      <point x="308" y="719" type="curve"/>
      <point x="312" y="738" type="line"/>
      <point x="366" y="739"/>
      <point x="421" y="743"/>
      <point x="465" y="750" type="curve"/>
      <point x="479" y="738" type="line"/>
      <point x="269" y="0" type="line"/>
      <point x="179" y="0" type="line"/>
    </contour>
  </outline>
</glyph>
<glyph name="l" format="1">
  <advance width="800"/>
  <unicode hex="006C"/>
  <note>
    Version created Thu Nov  2 18:42:25 2017
  </note>
  <outline>
    <contour>
      <point x="251" y="158" type="curve" smooth="yes"/>
      <point x="284" y="316"/>
      <point x="323" y="473"/>
      <point x="369" y="599" type="curve" smooth="yes"/>
      <point x="404" y="695"/>
      <point x="466" y="750"/>
      <point x="540" y="750" type="curve" smooth="yes"/>
      <point x="621" y="750"/>
      <point x="663" y="687"/>
      <point x="663" y="603" type="curve" smooth="yes"/>
      <point x="663" y="396"/>
      <point x="472" y="200"/>
      <point x="171" y="62" type="curve"/>
      <point x="160" y="93" type="line"/>
      <point x="441" y="247"/>
      <point x="606" y="416"/>
      <point x="606" y="587" type="curve" smooth="yes"/>
      <point x="606" y="655"/>
      <point x="585" y="708"/>
      <point x="542" y="708" type="curve" smooth="yes"/>
      <point x="509" y="708"/>
      <point x="487" y="675"/>
      <point x="470" y="627" type="curve" smooth="yes"/>
      <point x="414" y="472"/>
      <point x="365" y="304"/>
      <point x="341" y="129" type="curve" smooth="yes"/>
      <point x="335" y="85"/>
      <point x="379" y="46"/>
      <point x="424" y="46" type="curve" smooth="yes"/>
      <point x="481" y="46"/>
      <point x="529" y="94"/>
      <point x="574" y="160" type="curve"/>
      <point x="606" y="143" type="line"/>
      <point x="547" y="53"/>
      <point x="473" y="-12"/>
      <point x="383" y="-12" type="curve" smooth="yes"/>
      <point x="296" y="-12"/>
      <point x="233" y="74"/>
    </contour>
  </outline>
</glyph>
<glyph name="m" format="1">
  <advance width="800"/>
  <unicode hex="006D"/>
  <outline>
    <contour>
      <point x="455" y="-1" type="move" smooth="yes"/>
      <point x="567" y="398" type="line" smooth="yes"/>
      <point x="585" y="461"/>
      <point x="548" y="512"/>
      <point x="486" y="512" type="curve" smooth="yes"/>
      <point x="433" y="512"/>
      <point x="347" y="440"/>
      <point x="295" y="352" type="curve"/>
      <point x="285" y="296" type="line"/>
      <point x="337" y="377"/>
      <point x="417" y="456"/>
      <point x="457" y="456" type="curve" smooth="yes"/>
      <point x="482" y="456"/>
      <point x="488" y="428"/>
      <point x="478" y="393" type="curve" smooth="yes"/>
      <point x="367" y="-1" type="line" smooth="yes"/>
    </contour>
    <contour>
      <point x="624" y="78" type="line" smooth="yes"/>
      <point x="610" y="29"/>
      <point x="636" y="-12"/>
      <point x="682" y="-12" type="curve" smooth="yes"/>
      <point x="757" y="-12"/>
      <point x="817" y="31"/>
      <point x="839" y="114" type="curve"/>
      <point x="811" y="120" type="line"/>
      <point x="797" y="72"/>
      <point x="755" y="33"/>
      <point x="725" y="33" type="curve" smooth="yes"/>
      <point x="713" y="33"/>
      <point x="705" y="53"/>
      <point x="711" y="76" type="curve" smooth="yes"/>
      <point x="801" y="396" type="line" smooth="yes"/>
      <point x="819" y="459"/>
      <point x="782" y="510"/>
      <point x="720" y="510" type="curve" smooth="yes"/>
      <point x="667" y="510"/>
      <point x="581" y="438"/>
      <point x="529" y="350" type="curve"/>
      <point x="519" y="294" type="line"/>
      <point x="572" y="380"/>
      <point x="651" y="454"/>
      <point x="691" y="454" type="curve" smooth="yes"/>
      <point x="716" y="454"/>
      <point x="722" y="426"/>
      <point x="712" y="391" type="curve" smooth="yes"/>
    </contour>
    <contour>
      <point x="220" y="-1" type="move" smooth="yes"/>
      <point x="332" y="398" type="line" smooth="yes"/>
      <point x="350" y="461"/>
      <point x="315" y="511"/>
      <point x="263" y="511" type="curve" smooth="yes"/>
      <point x="213" y="511"/>
      <point x="151" y="446"/>
      <point x="102" y="368" type="curve"/>
      <point x="126" y="351" type="line"/>
      <point x="165" y="407"/>
      <point x="196" y="445"/>
      <point x="220" y="445" type="curve" smooth="yes"/>
      <point x="241" y="445"/>
      <point x="251" y="422"/>
      <point x="243" y="393" type="curve" smooth="yes"/>
      <point x="132" y="-1" type="line" smooth="yes"/>
    </contour>
  </outline>
</glyph>
<glyph name="n" format="1">
  <advance width="800"/>
  <unicode hex="006E"/>
  <outline>
    <contour>
      <point x="631" y="118" type="line" smooth="yes"/>
      <point x="622" y="83"/>
      <point x="635" y="55"/>
      <point x="661" y="55" type="curve" smooth="yes"/>
      <point x="695" y="55"/>
      <point x="741" y="120"/>
      <point x="762" y="199" type="curve"/>
      <point x="799" y="191" type="line"/>
      <point x="781" y="79"/>
      <point x="707" y="-12"/>
      <point x="632" y="-12" type="curve" smooth="yes"/>
      <point x="563" y="-12"/>
      <point x="522" y="46"/>
      <point x="541" y="118" type="curve" smooth="yes"/>
      <point x="607" y="363" type="line" smooth="yes"/>
      <point x="617" y="400"/>
      <point x="595" y="430"/>
      <point x="559" y="430" type="curve" smooth="yes"/>
      <point x="493" y="430"/>
      <point x="436" y="391"/>
      <point x="332" y="273" type="curve"/>
      <point x="312" y="299" type="line"/>
      <point x="444" y="458"/>
      <point x="520" y="511"/>
      <point x="615" y="511" type="curve" smooth="yes"/>
      <point x="682" y="511"/>
      <point x="719" y="445"/>
      <point x="697" y="363" type="curve" smooth="yes"/>
    </contour>
    <contour>
      <point x="177" y="-1" type="move" smooth="yes"/>
      <point x="287" y="393" type="line" smooth="yes"/>
      <point x="295" y="422"/>
      <point x="288" y="445"/>
      <point x="267" y="445" type="curve" smooth="yes"/>
      <point x="243" y="445"/>
      <point x="212" y="407"/>
      <point x="173" y="351" type="curve"/>
      <point x="149" y="368" type="line"/>
      <point x="198" y="446"/>
      <point x="260" y="511"/>
      <point x="310" y="511" type="curve" smooth="yes"/>
      <point x="362" y="511"/>
      <point x="397" y="461"/>
      <point x="379" y="398" type="curve" smooth="yes"/>
      <point x="267" y="-1" type="line" smooth="yes"/>
    </contour>
  </outline>
</glyph>
<glyph name="o" format="1">
  <advance width="800"/>
  <unicode hex="006F"/>
  <outline>
    <contour>
      <point x="263" y="262" type="curve" smooth="yes"/>
      <point x="298" y="390"/>
      <point x="391" y="478"/>
      <point x="507" y="478" type="curve" smooth="yes"/>
      <point x="632" y="478"/>
      <point x="700" y="374"/>
      <point x="664" y="236" type="curve" smooth="yes"/>
      <point x="629" y="109"/>
      <point x="524" y="22"/>
      <point x="408" y="22" type="curve" smooth="yes"/>
      <point x="283" y="22"/>
      <point x="226" y="124"/>
    </contour>
    <contour>
      <point x="757" y="264" type="curve" smooth="yes"/>
      <point x="795" y="402"/>
      <point x="689" y="512"/>
      <point x="545" y="512" type="curve" smooth="yes"/>
      <point x="358" y="512"/>
      <point x="203" y="414"/>
      <point x="155" y="234" type="curve" smooth="yes"/>
      <point x="116" y="89"/>
      <point x="208" y="-12"/>
      <point x="378" y="-12" type="curve" smooth="yes"/>
      <point x="565" y="-12"/>
      <point x="713" y="105"/>
    </contour>
  </outline>
</glyph>
<glyph name="p" format="1">
  <advance width="800"/>
  <unicode hex="0070"/>
  <outline>
    <contour>
      <point x="366" y="390" type="curve"/>
      <point x="356" y="315" type="line"/>
      <point x="394" y="394"/>
      <point x="479" y="459"/>
      <point x="545" y="459" type="curve" smooth="yes"/>
      <point x="614" y="459"/>
      <point x="670" y="389"/>
      <point x="670" y="303" type="curve" smooth="yes"/>
      <point x="670" y="167"/>
      <point x="555" y="32"/>
      <point x="438" y="32" type="curve" smooth="yes"/>
      <point x="382" y="32"/>
      <point x="323" y="71"/>
      <point x="302" y="119" type="curve"/>
      <point x="273" y="48" type="line"/>
      <point x="301" y="12"/>
      <point x="373" y="-12"/>
      <point x="434" y="-12" type="curve" smooth="yes"/>
      <point x="596" y="-12"/>
      <point x="776" y="166"/>
      <point x="776" y="326" type="curve" smooth="yes"/>
      <point x="776" y="439"/>
      <point x="698" y="512"/>
      <point x="579" y="512" type="curve" smooth="yes"/>
      <point x="511" y="512"/>
      <point x="414" y="457"/>
    </contour>
    <contour>
      <point x="296" y="398" type="curve" smooth="yes"/>
      <point x="146" y="-162" type="line" smooth="yes"/>
      <point x="138" y="-191"/>
      <point x="106" y="-212"/>
      <point x="61" y="-220" type="curve"/>
      <point x="57" y="-238" type="line" smooth="yes"/>
      <point x="287" y="-238" type="line" smooth="yes"/>
      <point x="291" y="-220" type="line"/>
      <point x="250" y="-212"/>
      <point x="228" y="-191"/>
      <point x="236" y="-162" type="curve" smooth="yes"/>
      <point x="386" y="398" type="line" smooth="yes"/>
      <point x="403" y="460"/>
      <point x="371" y="511"/>
      <point x="336" y="511" type="curve" smooth="yes"/>
      <point x="279" y="511"/>
      <point x="214" y="444"/>
      <point x="163" y="363" type="curve"/>
      <point x="187" y="346" type="line"/>
      <point x="226.71802997877847" y="404.0494284305224"/>
      <point x="255" y="445"/>
      <point x="285" y="445" type="curve" smooth="yes"/>
      <point x="298" y="445"/>
      <point x="303" y="424"/>
    </contour>
  </outline>
</glyph>
<glyph name="q" format="1">
  <advance width="800"/>
  <unicode hex="0071"/>
  <outline>
    <contour>
      <point x="656" y="332" type="curve"/>
      <point x="684" y="422" type="line"/>
      <point x="654" y="468"/>
      <point x="578" y="512"/>
      <point x="519" y="512" type="curve" smooth="yes"/>
      <point x="365" y="512"/>
      <point x="207" y="390"/>
      <point x="171" y="242" type="curve" smooth="yes"/>
      <point x="138" y="101"/>
      <point x="230" y="-12"/>
      <point x="372" y="-12" type="curve" smooth="yes"/>
      <point x="441" y="-12"/>
      <point x="539" y="29"/>
      <point x="592" y="73" type="curve"/>
      <point x="607" y="135" type="line"/>
      <point x="558" y="78"/>
      <point x="478" y="39"/>
      <point x="419" y="39" type="curve" smooth="yes"/>
      <point x="323" y="39"/>
      <point x="264" y="137"/>
      <point x="288" y="257" type="curve" smooth="yes"/>
      <point x="312" y="375"/>
      <point x="406" y="474"/>
      <point x="506" y="474" type="curve" smooth="yes"/>
      <point x="568" y="474"/>
      <point x="641" y="401"/>
    </contour>
    <contour>
      <point x="788" y="500" type="line"/>
      <point x="744" y="500" type="line"/>
      <point x="734" y="473"/>
      <point x="698" y="430"/>
      <point x="678" y="430" type="curve"/>
      <point x="516" y="-162" type="line" smooth="yes"/>
      <point x="508" y="-191"/>
      <point x="476" y="-212"/>
      <point x="431" y="-220" type="curve"/>
      <point x="427" y="-238" type="line" smooth="yes"/>
      <point x="655" y="-238" type="line" smooth="yes"/>
      <point x="659" y="-220" type="line"/>
      <point x="618" y="-212"/>
      <point x="598" y="-191"/>
      <point x="606" y="-162" type="curve" smooth="yes"/>
    </contour>
  </outline>
</glyph>
<glyph name="r" format="1">
  <advance width="800"/>
  <unicode hex="0072"/>
  <outline>
    <contour>
      <point x="683" y="511" type="curve" smooth="yes"/>
      <point x="599" y="511"/>
      <point x="468" y="411"/>
      <point x="397" y="334" type="curve"/>
      <point x="384" y="248" type="line"/>
      <point x="436" y="342"/>
      <point x="555" y="439"/>
      <point x="618" y="439" type="curve" smooth="yes"/>
      <point x="661" y="439"/>
      <point x="689" y="410"/>
      <point x="679" y="375" type="curve" smooth="yes"/>
      <point x="670" y="345"/>
      <point x="693" y="321"/>
      <point x="730" y="321" type="curve" smooth="yes"/>
      <point x="760" y="321"/>
      <point x="799" y="343"/>
      <point x="800" y="401" type="curve" smooth="yes"/>
      <point x="801" y="462"/>
      <point x="749" y="511"/>
    </contour>
    <contour>
      <point x="352" y="398" type="curve" smooth="yes"/>
      <point x="269" y="74" type="line" smooth="yes"/>
      <point x="262" y="45"/>
      <point x="229" y="24"/>
      <point x="184" y="16" type="curve"/>
      <point x="180" y="-2" type="line" smooth="yes"/>
      <point x="410" y="-2" type="line" smooth="yes"/>
      <point x="414" y="16" type="line"/>
      <point x="373" y="24"/>
      <point x="352" y="45"/>
      <point x="359" y="74" type="curve" smooth="yes"/>
      <point x="442" y="398" type="line" smooth="yes"/>
      <point x="458" y="461"/>
      <point x="442" y="511"/>
      <point x="385" y="511" type="curve" smooth="yes"/>
      <point x="325" y="511"/>
      <point x="278" y="490"/>
      <point x="219" y="374" type="curve"/>
      <point x="243" y="357" type="line"/>
      <point x="277" y="416"/>
      <point x="309" y="462"/>
      <point x="339" y="462" type="curve" smooth="yes"/>
      <point x="357" y="462"/>
      <point x="359" y="424"/>
    </contour>
  </outline>
</glyph>
<glyph name="s" format="1">
  <advance width="800"/>
  <unicode hex="0073"/>
  <note>
    Version created Thu Nov  2 23:15:51 2017
  </note>
  <outline>
    <contour>
      <point x="677" y="141" type="curve" smooth="yes"/>
      <point x="676" y="264"/>
      <point x="401" y="313"/>
      <point x="399" y="398" type="curve" smooth="yes"/>
      <point x="398" y="441"/>
      <point x="451" y="477"/>
      <point x="507" y="477" type="curve" smooth="yes"/>
      <point x="579" y="477"/>
      <point x="651" y="426"/>
      <point x="651" y="378" type="curve" smooth="yes"/>
      <point x="651" y="352"/>
      <point x="663" y="330"/>
      <point x="693" y="330" type="curve" smooth="yes"/>
      <point x="718" y="330"/>
      <point x="739" y="353"/>
      <point x="739" y="393" type="curve" smooth="yes"/>
      <point x="739" y="441"/>
      <point x="652" y="511"/>
      <point x="521" y="511" type="curve" smooth="yes"/>
      <point x="420" y="511"/>
      <point x="326" y="434"/>
      <point x="326" y="362" type="curve" smooth="yes"/>
      <point x="326" y="237"/>
      <point x="582" y="211"/>
      <point x="582" y="99" type="curve" smooth="yes"/>
      <point x="582" y="62"/>
      <point x="513" y="21"/>
      <point x="453" y="21" type="curve" smooth="yes"/>
      <point x="383" y="21"/>
      <point x="311" y="70"/>
      <point x="310" y="132" type="curve" smooth="yes"/>
      <point x="310" y="162"/>
      <point x="285" y="192"/>
      <point x="259" y="192" type="curve" smooth="yes"/>
      <point x="216" y="192"/>
      <point x="198" y="162"/>
      <point x="198" y="123" type="curve" smooth="yes"/>
      <point x="198" y="56"/>
      <point x="300" y="-12"/>
      <point x="432" y="-12" type="curve" smooth="yes"/>
      <point x="611" y="-12"/>
      <point x="678" y="74"/>
    </contour>
  </outline>
</glyph>
<glyph name="t" format="1">
  <advance width="800"/>
  <unicode hex="0074"/>
  <outline>
    <contour>
      <point x="620" y="437" type="line" smooth="yes"/>
      <point x="633" y="485" type="line" smooth="yes"/>
      <point x="260" y="485" type="line" smooth="yes"/>
      <point x="247" y="437" type="line" smooth="yes"/>
    </contour>
    <contour>
      <point x="287" y="178" type="line" smooth="yes"/>
      <point x="255" y="68"/>
      <point x="316" y="-12"/>
      <point x="428" y="-12" type="curve" smooth="yes"/>
      <point x="534" y="-12"/>
      <point x="669" y="104"/>
      <point x="735" y="251" type="curve"/>
      <point x="698" y="263" type="line"/>
      <point x="630" y="145"/>
      <point x="530" y="54"/>
      <point x="463" y="54" type="curve" smooth="yes"/>
      <point x="398" y="54"/>
      <point x="360" y="116"/>
      <point x="382" y="190" type="curve" smooth="yes"/>
      <point x="520" y="660" type="line"/>
      <point x="428" y="660" type="line"/>
    </contour>
  </outline>
</glyph>
<glyph name="u" format="1">
  <advance width="800"/>
  <unicode hex="0075"/>
  <outline>
    <contour>
      <point x="371" y="399" type="curve" smooth="yes"/>
      <point x="310" y="138" type="line" smooth="yes"/>
      <point x="299" y="90"/>
      <point x="324" y="53"/>
      <point x="361" y="53" type="curve" smooth="yes"/>
      <point x="433" y="53"/>
      <point x="522" y="117"/>
      <point x="566" y="199" type="curve"/>
      <point x="547" y="119" type="line"/>
      <point x="504" y="47"/>
      <point x="398" y="-12"/>
      <point x="319" y="-12" type="curve" smooth="yes"/>
      <point x="239" y="-12"/>
      <point x="198" y="55"/>
      <point x="218" y="137" type="curve" smooth="yes"/>
      <point x="279" y="393" type="line" smooth="yes"/>
      <point x="286" y="422"/>
      <point x="278" y="445"/>
      <point x="261" y="445" type="curve" smooth="yes"/>
      <point x="245" y="445"/>
      <point x="203" y="403"/>
      <point x="167" y="351" type="curve"/>
      <point x="143" y="368" type="line"/>
      <point x="193" y="447"/>
      <point x="265" y="511"/>
      <point x="304" y="511" type="curve" smooth="yes"/>
      <point x="355" y="511"/>
      <point x="385" y="461"/>
    </contour>
    <contour>
      <point x="725" y="500" type="line"/>
      <point x="631" y="118" type="line" smooth="yes"/>
      <point x="622" y="83"/>
      <point x="635" y="55"/>
      <point x="661" y="55" type="curve" smooth="yes"/>
      <point x="695" y="55"/>
      <point x="741" y="120"/>
      <point x="762" y="199" type="curve"/>
      <point x="799" y="191" type="line"/>
      <point x="781" y="79"/>
      <point x="707" y="-12"/>
      <point x="632" y="-12" type="curve" smooth="yes"/>
      <point x="563" y="-12"/>
      <point x="523" y="46"/>
      <point x="541" y="118" type="curve" smooth="yes"/>
      <point x="635" y="500" type="line"/>
    </contour>
  </outline>
</glyph>
<glyph name="v" format="1">
  <advance width="800"/>
  <unicode hex="0076"/>
  <outline>
    <contour>
      <point x="464" y="45" type="curve" smooth="yes"/>
      <point x="531" y="45"/>
      <point x="678" y="231"/>
      <point x="678" y="309" type="curve" smooth="yes"/>
      <point x="678" y="353"/>
      <point x="662" y="396"/>
      <point x="623" y="416" type="curve" smooth="yes"/>
      <point x="607" y="425"/>
      <point x="597" y="441"/>
      <point x="597" y="458" type="curve" smooth="yes"/>
      <point x="597" y="485"/>
      <point x="622" y="511"/>
      <point x="668" y="511" type="curve" smooth="yes"/>
      <point x="719" y="511"/>
      <point x="751" y="454"/>
      <point x="751" y="365" type="curve" smooth="yes"/>
      <point x="751" y="231"/>
      <point x="543" y="-12"/>
      <point x="429" y="-12" type="curve" smooth="yes"/>
      <point x="346" y="-12"/>
      <point x="300" y="87"/>
      <point x="300" y="243" type="curve" smooth="yes"/>
      <point x="300" y="372"/>
      <point x="315" y="427"/>
      <point x="275" y="427" type="curve" smooth="yes"/>
      <point x="249" y="427"/>
      <point x="212" y="379"/>
      <point x="189" y="313" type="curve"/>
      <point x="162" y="321" type="line"/>
      <point x="183" y="419"/>
      <point x="258" y="511"/>
      <point x="317" y="511" type="curve" smooth="yes"/>
      <point x="370" y="511"/>
      <point x="403" y="465"/>
      <point x="403" y="393" type="curve" smooth="yes"/>
      <point x="403" y="368"/>
      <point x="397" y="274"/>
      <point x="405" y="189" type="curve" smooth="yes"/>
      <point x="412" y="96"/>
      <point x="438" y="45"/>
    </contour>
  </outline>
</glyph>
<glyph name="w" format="1">
  <advance width="800"/>
  <unicode hex="0077"/>
  <outline>
    <contour>
      <point x="300" y="502"/>
      <point x="322" y="431"/>
      <point x="322" y="357" type="curve" smooth="yes"/>
      <point x="322" y="261"/>
      <point x="317" y="190"/>
      <point x="317" y="138" type="curve" smooth="yes"/>
      <point x="317" y="91"/>
      <point x="326" y="58"/>
      <point x="356" y="58" type="curve" smooth="yes"/>
      <point x="398" y="58"/>
      <point x="441" y="108"/>
      <point x="470" y="238" type="curve"/>
      <point x="491" y="168" type="line"/>
      <point x="470" y="80"/>
      <point x="378" y="-12"/>
      <point x="312" y="-12" type="curve" smooth="yes"/>
      <point x="251" y="-12"/>
      <point x="224" y="47"/>
      <point x="224" y="174" type="curve" smooth="yes"/>
      <point x="224" y="311"/>
      <point x="241" y="426"/>
      <point x="201" y="426" type="curve" smooth="yes"/>
      <point x="180" y="426"/>
      <point x="170" y="409"/>
      <point x="142" y="332" type="curve"/>
      <point x="115" y="339" type="line"/>
      <point x="137" y="443"/>
      <point x="181" y="502"/>
      <point x="237" y="502" type="curve" smooth="yes"/>
    </contour>
    <contour>
      <point x="542" y="500" type="curve" smooth="yes"/>
      <point x="567" y="500"/>
      <point x="582" y="484"/>
      <point x="579" y="459" type="curve" smooth="yes"/>
      <point x="573" y="410"/>
      <point x="549" y="281"/>
      <point x="549" y="185" type="curve" smooth="yes"/>
      <point x="549" y="112"/>
      <point x="561" y="57"/>
      <point x="595" y="57" type="curve" smooth="yes"/>
      <point x="659" y="57"/>
      <point x="761" y="219"/>
      <point x="761" y="309" type="curve" smooth="yes"/>
      <point x="761" y="353"/>
      <point x="746" y="393"/>
      <point x="703" y="416" type="curve" smooth="yes"/>
      <point x="682" y="428"/>
      <point x="672" y="452"/>
      <point x="680" y="472" type="curve" smooth="yes"/>
      <point x="693" y="502"/>
      <point x="709" y="511"/>
      <point x="748" y="511" type="curve" smooth="yes"/>
      <point x="799" y="511"/>
      <point x="831" y="454"/>
      <point x="831" y="365" type="curve" smooth="yes"/>
      <point x="831" y="220"/>
      <point x="662" y="-12"/>
      <point x="556" y="-12" type="curve" smooth="yes"/>
      <point x="503" y="-12"/>
      <point x="465" y="50"/>
      <point x="465" y="169" type="curve" smooth="yes"/>
      <point x="465" y="282"/>
      <point x="495" y="414"/>
      <point x="501" y="458" type="curve" smooth="yes"/>
      <point x="505" y="484"/>
      <point x="520" y="500"/>
    </contour>
  </outline>
</glyph>
<glyph name="x" format="1">
  <advance width="800"/>
  <unicode hex="0078"/>
  <outline>
    <contour>
      <point x="530" y="75" type="line" smooth="yes"/>
      <point x="559" y="32"/>
      <point x="532" y="17"/>
      <point x="483" y="17" type="curve"/>
      <point x="478" y="0" type="line" smooth="yes"/>
      <point x="724" y="0" type="line" smooth="yes"/>
      <point x="729" y="18" type="line"/>
      <point x="682" y="20"/>
      <point x="657" y="42"/>
      <point x="636" y="75" type="curve" smooth="yes"/>
      <point x="404" y="425" type="line" smooth="yes"/>
      <point x="375" y="468"/>
      <point x="402" y="483"/>
      <point x="451" y="483" type="curve"/>
      <point x="456" y="500" type="line" smooth="yes"/>
      <point x="210" y="500" type="line" smooth="yes"/>
      <point x="205" y="482" type="line"/>
      <point x="252" y="480"/>
      <point x="277" y="458"/>
      <point x="298" y="425" type="curve" smooth="yes"/>
    </contour>
    <contour>
      <point x="200" y="75" type="line" smooth="yes"/>
      <point x="159" y="44"/>
      <point x="121" y="24"/>
      <point x="81" y="18" type="curve"/>
      <point x="76" y="0" type="line" smooth="yes"/>
      <point x="270" y="0" type="line" smooth="yes"/>
      <point x="275" y="18" type="line"/>
      <point x="231" y="24"/>
      <point x="213" y="43"/>
      <point x="254" y="75" type="curve" smooth="yes"/>
      <point x="458" y="231" type="line" smooth="yes"/>
      <point x="433" y="252" type="line" smooth="yes"/>
    </contour>
    <contour>
      <point x="734" y="425" type="line" smooth="yes"/>
      <point x="775" y="456"/>
      <point x="813" y="476"/>
      <point x="853" y="482" type="curve"/>
      <point x="858" y="500" type="line" smooth="yes"/>
      <point x="664" y="500" type="line" smooth="yes"/>
      <point x="659" y="482" type="line"/>
      <point x="703" y="476"/>
      <point x="721" y="457"/>
      <point x="680" y="425" type="curve" smooth="yes"/>
      <point x="476" y="269" type="line" smooth="yes"/>
      <point x="501" y="248" type="line" smooth="yes"/>
    </contour>
  </outline>
</glyph>
<glyph name="y" format="1">
  <advance width="800"/>
  <unicode hex="0079"/>
  <outline>
    <contour>
      <point x="449" y="69" type="curve" smooth="yes"/>
      <point x="519" y="69"/>
      <point x="619" y="168"/>
      <point x="659" y="240" type="curve"/>
      <point x="668" y="183" type="line"/>
      <point x="601" y="109"/>
      <point x="492" y="0"/>
      <point x="408" y="0" type="curve" smooth="yes"/>
      <point x="295" y="0"/>
      <point x="304" y="137"/>
      <point x="327" y="231" type="curve" smooth="yes"/>
      <point x="356" y="349"/>
      <point x="340" y="429"/>
      <point x="319" y="429" type="curve" smooth="yes"/>
      <point x="293" y="429"/>
      <point x="256" y="379"/>
      <point x="233" y="313" type="curve"/>
      <point x="206" y="321" type="line"/>
      <point x="227" y="419"/>
      <point x="302" y="511"/>
      <point x="361" y="511" type="curve" smooth="yes"/>
      <point x="413" y="511"/>
      <point x="443" y="455"/>
      <point x="444" y="393" type="curve" smooth="yes"/>
      <point x="444" y="369"/>
      <point x="438" y="297"/>
      <point x="425" y="224" type="curve" smooth="yes"/>
      <point x="408" y="126"/>
      <point x="408" y="69"/>
    </contour>
    <contour>
      <point x="674" y="0" type="line" smooth="yes"/>
      <point x="634" y="-140"/>
      <point x="514" y="-250"/>
      <point x="368" y="-250" type="curve" smooth="yes"/>
      <point x="316" y="-250"/>
      <point x="250" y="-215"/>
      <point x="250" y="-164" type="curve" smooth="yes"/>
      <point x="250" y="-124"/>
      <point x="276" y="-99"/>
      <point x="304" y="-99" type="curve" smooth="yes"/>
      <point x="335" y="-99"/>
      <point x="362" y="-124"/>
      <point x="357" y="-152" type="curve" smooth="yes"/>
      <point x="352" y="-183"/>
      <point x="366" y="-210"/>
      <point x="389" y="-210" type="curve" smooth="yes"/>
      <point x="496" y="-210"/>
      <point x="555" y="-103"/>
      <point x="584" y="0" type="curve" smooth="yes"/>
      <point x="723" y="500" type="line"/>
      <point x="814" y="500" type="line"/>
    </contour>
  </outline>
</glyph>
<glyph name="z" format="1">
  <advance width="800"/>
  <unicode hex="007A"/>
  <outline>
    <contour>
      <point x="192" y="375" type="line"/>
      <point x="192" y="375"/>
      <point x="298" y="506"/>
      <point x="397" y="506" type="curve" smooth="yes"/>
      <point x="496" y="506"/>
      <point x="518" y="454"/>
      <point x="591" y="454" type="curve" smooth="yes"/>
      <point x="664" y="454"/>
      <point x="740" y="510"/>
      <point x="740" y="510" type="curve"/>
      <point x="755" y="489" type="line"/>
      <point x="755" y="489"/>
      <point x="615" y="378"/>
      <point x="531" y="378" type="curve" smooth="yes"/>
      <point x="451" y="378"/>
      <point x="431" y="413"/>
      <point x="345" y="413" type="curve" smooth="yes"/>
      <point x="259" y="413"/>
      <point x="203" y="358"/>
      <point x="203" y="358" type="curve"/>
    </contour>
    <contour>
      <point x="150" y="12" type="line"/>
      <point x="150" y="12"/>
      <point x="285" y="122"/>
      <point x="386" y="122" type="curve" smooth="yes"/>
      <point x="498" y="122"/>
      <point x="562" y="67"/>
      <point x="616" y="67" type="curve" smooth="yes"/>
      <point x="702" y="67"/>
      <point x="787" y="196"/>
      <point x="787" y="196" type="curve"/>
      <point x="817" y="182" type="line"/>
      <point x="817" y="182"/>
      <point x="682" y="-27"/>
      <point x="574" y="-29" type="curve" smooth="yes"/>
      <point x="486" y="-31"/>
      <point x="362" y="44"/>
      <point x="286" y="44" type="curve" smooth="yes"/>
      <point x="200" y="44"/>
      <point x="158" y="-2"/>
      <point x="158" y="-2" type="curve"/>
    </contour>
    <contour>
      <point x="763" y="485" type="line"/>
      <point x="158" y="-2" type="line"/>
      <point x="135" y="29" type="line"/>
      <point x="741" y="511" type="line"/>
    </contour>
  </outline>
</glyph>
<glyph name="braceleft" format="1">
  <advance width="800"/>
  <unicode hex="007B"/>
  <outline>
    <contour>
      <point x="284" y="250" type="line"/>
      <point x="426" y="250"/>
      <point x="615" y="279"/>
      <point x="645" y="392" type="curve" smooth="yes"/>
      <point x="659" y="442"/>
      <point x="636" y="499"/>
      <point x="650" y="550" type="curve" smooth="yes"/>
      <point x="671" y="630"/>
      <point x="771" y="655"/>
      <point x="861" y="655" type="curve"/>
      <point x="871" y="692" type="line"/>
      <point x="750" y="692"/>
      <point x="586" y="648"/>
      <point x="559" y="546" type="curve" smooth="yes"/>
      <point x="543" y="489"/>
      <point x="569" y="447"/>
      <point x="554" y="389" type="curve" smooth="yes"/>
      <point x="531" y="304"/>
      <point x="435" y="294"/>
      <point x="291" y="273" type="curve"/>
    </contour>
    <contour>
      <point x="278" y="227" type="line"/>
      <point x="402" y="227" type="line"/>
      <point x="414" y="272" type="line"/>
      <point x="290" y="272" type="line"/>
    </contour>
    <contour>
      <point x="284" y="250" type="curve"/>
      <point x="278" y="227" type="line"/>
      <point x="412" y="206"/>
      <point x="502" y="196"/>
      <point x="479" y="111" type="curve" smooth="yes"/>
      <point x="464" y="53"/>
      <point x="415" y="11"/>
      <point x="400" y="-46" type="curve" smooth="yes"/>
      <point x="373" y="-148"/>
      <point x="513" y="-192"/>
      <point x="634" y="-192" type="curve"/>
      <point x="644" y="-155" type="line"/>
      <point x="554" y="-155"/>
      <point x="468" y="-130"/>
      <point x="489" y="-50" type="curve" smooth="yes"/>
      <point x="503" y="1"/>
      <point x="556" y="58"/>
      <point x="569" y="108" type="curve" smooth="yes"/>
      <point x="600" y="221"/>
      <point x="426" y="250"/>
    </contour>
  </outline>
</glyph>
<glyph name="braceright" format="1">
  <advance width="800"/>
  <unicode hex="007D"/>
  <outline>
    <contour>
      <point x="752" y="250" type="curve"/>
      <point x="759" y="273" type="line"/>
      <point x="625" y="294"/>
      <point x="535" y="304"/>
      <point x="558" y="389" type="curve" smooth="yes"/>
      <point x="573" y="447"/>
      <point x="621" y="489"/>
      <point x="637" y="546" type="curve" smooth="yes"/>
      <point x="664" y="648"/>
      <point x="524" y="692"/>
      <point x="403" y="692" type="curve"/>
      <point x="393" y="655" type="line"/>
      <point x="483" y="655"/>
      <point x="569" y="630"/>
      <point x="548" y="550" type="curve" smooth="yes"/>
      <point x="534" y="499"/>
      <point x="481" y="442"/>
      <point x="467" y="392" type="curve" smooth="yes"/>
      <point x="437" y="279"/>
      <point x="610" y="250"/>
    </contour>
    <contour>
      <point x="746" y="227" type="line"/>
      <point x="758" y="272" type="line"/>
      <point x="634" y="272" type="line"/>
      <point x="622" y="227" type="line"/>
    </contour>
    <contour>
      <point x="752" y="250" type="line"/>
      <point x="610" y="250"/>
      <point x="422" y="221"/>
      <point x="391" y="108" type="curve" smooth="yes"/>
      <point x="378" y="58"/>
      <point x="401" y="1"/>
      <point x="387" y="-50" type="curve" smooth="yes"/>
      <point x="366" y="-130"/>
      <point x="266" y="-155"/>
      <point x="176" y="-155" type="curve"/>
      <point x="166" y="-192" type="line"/>
      <point x="287" y="-192"/>
      <point x="451" y="-148"/>
      <point x="478" y="-46" type="curve" smooth="yes"/>
      <point x="493" y="11"/>
      <point x="468" y="53"/>
      <point x="483" y="111" type="curve" smooth="yes"/>
      <point x="506" y="196"/>
      <point x="602" y="206"/>
      <point x="746" y="227" type="curve"/>
    </contour>
  </outline>
</glyph>
<glyph name="asciitilde" format="1">
  <advance width="800"/>
  <unicode hex="007E"/>
  <outline>
    <contour>
      <point x="129" y="244" type="curve"/>
      <point x="138" y="219" type="line"/>
      <point x="206" y="263"/>
      <point x="255" y="278"/>
      <point x="294" y="278" type="curve" smooth="yes"/>
      <point x="377" y="278"/>
      <point x="411" y="209"/>
      <point x="489" y="209" type="curve" smooth="yes"/>
      <point x="538" y="209"/>
      <point x="604" y="236"/>
      <point x="711" y="323" type="curve"/>
      <point x="701" y="348" type="line"/>
      <point x="632" y="304"/>
      <point x="583" y="289"/>
      <point x="544" y="289" type="curve" smooth="yes"/>
      <point x="462" y="289"/>
      <point x="429" y="358"/>
      <point x="350" y="358" type="curve" smooth="yes"/>
      <point x="302" y="358"/>
      <point x="236" y="331"/>
    </contour>
  </outline>
</glyph>
<glyph name="periodcentered" format="1">
  <advance width="800"/>
  <unicode hex="00B7"/>
  <outline>
    <contour>
      <point x="535" y="266" type="curve" smooth="yes"/>
      <point x="524" y="225"/>
      <point x="481" y="191"/>
      <point x="440" y="191" type="curve" smooth="yes"/>
      <point x="399" y="191"/>
      <point x="374" y="225"/>
      <point x="385" y="266" type="curve" smooth="yes"/>
      <point x="396" y="307"/>
      <point x="439" y="341"/>
      <point x="480" y="341" type="curve" smooth="yes"/>
      <point x="521" y="341"/>
      <point x="546" y="307"/>
    </contour>
  </outline>
</glyph>
<glyph name="quoteleft" format="1">
  <advance width="800"/>
  <unicode hex="2018"/>
  <outline>
    <contour>
      <point x="394" y="452" type="curve" smooth="yes"/>
      <point x="430" y="452"/>
      <point x="468" y="480"/>
      <point x="476" y="513" type="curve" smooth="yes"/>
      <point x="485" y="547"/>
      <point x="465" y="573"/>
      <point x="431" y="573" type="curve" smooth="yes"/>
      <point x="421" y="573"/>
      <point x="417" y="572"/>
      <point x="409" y="568" type="curve"/>
      <point x="424" y="625"/>
      <point x="533" y="667"/>
      <point x="533" y="667" type="curve"/>
      <point x="524" y="692" type="line"/>
      <point x="434" y="657"/>
      <point x="369" y="616"/>
      <point x="343" y="520" type="curve" smooth="yes"/>
      <point x="334" y="484"/>
      <point x="356" y="452"/>
    </contour>
  </outline>
</glyph>
<glyph name="quoteright" format="1">
  <advance width="800"/>
  <unicode hex="2019"/>
  <outline>
    <contour>
      <point x="470" y="692" type="curve" smooth="yes"/>
      <point x="434" y="692"/>
      <point x="397" y="664"/>
      <point x="388" y="631" type="curve" smooth="yes"/>
      <point x="379" y="597"/>
      <point x="399" y="571"/>
      <point x="433" y="571" type="curve" smooth="yes"/>
      <point x="443" y="571"/>
      <point x="447" y="572"/>
      <point x="455" y="576" type="curve"/>
      <point x="440" y="519"/>
      <point x="332" y="477"/>
      <point x="332" y="477" type="curve"/>
      <point x="340" y="452" type="line"/>
      <point x="430" y="487"/>
      <point x="495" y="528"/>
      <point x="521" y="624" type="curve" smooth="yes"/>
      <point x="531" y="660"/>
      <point x="508" y="692"/>
    </contour>
  </outline>
</glyph>
<glyph name="quotedblleft" format="1">
  <advance width="800"/>
  <unicode hex="201C"/>
  <outline>
    <contour>
      <point x="312" y="452" type="curve" smooth="yes"/>
      <point x="348" y="452"/>
      <point x="386" y="480"/>
      <point x="394" y="513" type="curve" smooth="yes"/>
      <point x="403" y="547"/>
      <point x="383" y="573"/>
      <point x="349" y="573" type="curve" smooth="yes"/>
      <point x="339" y="573"/>
      <point x="335" y="572"/>
      <point x="327" y="568" type="curve"/>
      <point x="342" y="625"/>
      <point x="451" y="667"/>
      <point x="451" y="667" type="curve"/>
      <point x="442" y="692" type="line"/>
      <point x="352" y="657"/>
      <point x="287" y="616"/>
      <point x="261" y="520" type="curve" smooth="yes"/>
      <point x="252" y="484"/>
      <point x="274" y="452"/>
    </contour>
    <contour>
      <point x="476" y="452" type="curve" smooth="yes"/>
      <point x="512" y="452"/>
      <point x="550" y="480"/>
      <point x="558" y="513" type="curve" smooth="yes"/>
      <point x="567" y="547"/>
      <point x="547" y="573"/>
      <point x="513" y="573" type="curve" smooth="yes"/>
      <point x="503" y="573"/>
      <point x="499" y="572"/>
      <point x="491" y="568" type="curve"/>
      <point x="506" y="625"/>
      <point x="615" y="667"/>
      <point x="615" y="667" type="curve"/>
      <point x="606" y="692" type="line"/>
      <point x="516" y="657"/>
      <point x="451" y="616"/>
      <point x="425" y="520" type="curve" smooth="yes"/>
      <point x="416" y="484"/>
      <point x="438" y="452"/>
    </contour>
  </outline>
</glyph>
<glyph name="quotedblright" format="1">
  <advance width="800"/>
  <unicode hex="201D"/>
  <outline>
    <contour>
      <point x="552" y="692" type="curve" smooth="yes"/>
      <point x="516" y="692"/>
      <point x="479" y="664"/>
      <point x="470" y="631" type="curve" smooth="yes"/>
      <point x="461" y="597"/>
      <point x="481" y="571"/>
      <point x="515" y="571" type="curve" smooth="yes"/>
      <point x="525" y="571"/>
      <point x="529" y="572"/>
      <point x="537" y="576" type="curve"/>
      <point x="522" y="519"/>
      <point x="414" y="477"/>
      <point x="414" y="477" type="curve"/>
      <point x="422" y="452" type="line"/>
      <point x="512" y="487"/>
      <point x="577" y="528"/>
      <point x="603" y="624" type="curve" smooth="yes"/>
      <point x="613" y="660"/>
      <point x="590" y="692"/>
    </contour>
    <contour>
      <point x="388" y="692" type="curve" smooth="yes"/>
      <point x="352" y="692"/>
      <point x="315" y="664"/>
      <point x="306" y="631" type="curve" smooth="yes"/>
      <point x="297" y="597"/>
      <point x="317" y="571"/>
      <point x="351" y="571" type="curve" smooth="yes"/>
      <point x="361" y="571"/>
      <point x="365" y="572"/>
      <point x="373" y="576" type="curve"/>
      <point x="358" y="519"/>
      <point x="250" y="477"/>
      <point x="250" y="477" type="curve"/>
      <point x="258" y="452" type="line"/>
      <point x="348" y="487"/>
      <point x="413" y="528"/>
      <point x="439" y="624" type="curve" smooth="yes"/>
      <point x="449" y="660"/>
      <point x="426" y="692"/>
    </contour>
  </outline>
</glyph>
<glyph name="numero" format="1">
  <advance width="800"/>
  <unicode hex="2116"/>
  <outline>
    <contour>
      <point x="175" y="0" type="line" smooth="yes"/>
      <point x="120" y="0" type="line" smooth="yes"/>
      <point x="297" y="660" type="line" smooth="yes"/>
      <point x="352" y="660" type="line" smooth="yes"/>
    </contour>
    <contour>
      <point x="56" y="18" type="line"/>
      <point x="101" y="26"/>
      <point x="133" y="47"/>
      <point x="140" y="76" type="curve"/>
      <point x="120" y="0" type="line" smooth="yes"/>
      <point x="51" y="0" type="line" smooth="yes"/>
    </contour>
    <contour>
      <point x="223" y="642" type="curve"/>
      <point x="228" y="660" type="line" smooth="yes"/>
      <point x="297" y="660" type="line" smooth="yes"/>
      <point x="276" y="584" type="line"/>
      <point x="284" y="613"/>
      <point x="264" y="634"/>
    </contour>
    <contour>
      <point x="249" y="18" type="line"/>
      <point x="208" y="26"/>
      <point x="188" y="47"/>
      <point x="195" y="76" type="curve"/>
      <point x="175" y="0" type="line" smooth="yes"/>
      <point x="244" y="0" type="line" smooth="yes"/>
    </contour>
    <contour>
      <point x="617" y="0" type="line" smooth="yes"/>
      <point x="562" y="0" type="line" smooth="yes"/>
      <point x="658" y="360" type="line" smooth="yes"/>
      <point x="713" y="360" type="line" smooth="yes"/>
    </contour>
    <contour>
      <point x="585" y="342" type="line"/>
      <point x="625" y="334"/>
      <point x="646" y="313"/>
      <point x="638" y="284" type="curve"/>
      <point x="658" y="360" type="line" smooth="yes"/>
      <point x="589" y="360" type="line" smooth="yes"/>
    </contour>
    <contour>
      <point x="778" y="342" type="line"/>
      <point x="732" y="334"/>
      <point x="701" y="313"/>
      <point x="693" y="284" type="curve"/>
      <point x="713" y="360" type="line" smooth="yes"/>
      <point x="782" y="360" type="line" smooth="yes"/>
    </contour>
    <contour>
      <point x="527" y="0" type="line"/>
      <point x="282" y="660" type="line"/>
      <point x="389" y="660" type="line"/>
      <point x="612" y="45" type="line" smooth="yes"/>
      <point x="600" y="0" type="line" smooth="yes"/>
    </contour>
    <contour>
      <point x="823" y="527" type="curve" smooth="yes"/>
      <point x="810" y="476"/>
      <point x="760" y="425"/>
      <point x="715" y="425" type="curve" smooth="yes"/>
      <point x="651" y="425"/>
      <point x="622" y="472"/>
      <point x="641" y="543" type="curve" smooth="yes"/>
      <point x="655" y="594"/>
      <point x="705" y="645"/>
      <point x="750" y="645" type="curve" smooth="yes"/>
      <point x="814" y="645"/>
      <point x="842" y="598"/>
    </contour>
    <contour>
      <point x="570" y="526" type="curve" smooth="yes"/>
      <point x="551" y="456"/>
      <point x="607" y="398"/>
      <point x="677" y="398" type="curve" smooth="yes"/>
      <point x="772" y="398"/>
      <point x="869" y="449"/>
      <point x="895" y="544" type="curve" smooth="yes"/>
      <point x="914" y="614"/>
      <point x="858" y="672"/>
      <point x="788" y="672" type="curve" smooth="yes"/>
      <point x="693" y="672"/>
      <point x="595" y="621"/>
    </contour>
  </outline>
</glyph>
<glyph name="notequal" format="1">
  <advance width="800"/>
  <unicode hex="2260"/>
  <outline>
    <contour>
      <point x="731" y="347" type="line" smooth="yes"/>
      <point x="231" y="347" type="line" smooth="yes"/>
      <point x="250" y="419" type="line" smooth="yes"/>
      <point x="750" y="419" type="line" smooth="yes"/>
    </contour>
    <contour>
      <point x="677" y="147" type="line" smooth="yes"/>
      <point x="177" y="147" type="line" smooth="yes"/>
      <point x="196" y="219" type="line" smooth="yes"/>
      <point x="696" y="219" type="line" smooth="yes"/>
    </contour>
    <contour>
      <point x="269" y="46" type="line" smooth="yes"/>
      <point x="185" y="46" type="line" smooth="yes"/>
      <point x="651" y="521" type="line" smooth="yes"/>
      <point x="742" y="521" type="line" smooth="yes"/>
    </contour>
  </outline>
</glyph>
<glyph name="asterisk2" format="1">
  <advance width="800"/>
  <outline>
    <contour>
      <point x="400" y="489" type="line"/>
      <point x="472" y="489"/>
      <point x="531" y="446"/>
      <point x="589" y="446" type="curve" smooth="yes"/>
      <point x="617" y="446"/>
      <point x="640" y="469"/>
      <point x="640" y="497" type="curve" smooth="yes"/>
      <point x="640" y="525"/>
      <point x="617" y="548"/>
      <point x="589" y="548" type="curve" smooth="yes"/>
      <point x="531" y="548"/>
      <point x="472" y="505"/>
      <point x="400" y="505" type="curve"/>
    </contour>
    <contour>
      <point x="400" y="505" type="line"/>
      <point x="328" y="505"/>
      <point x="269" y="548"/>
      <point x="211" y="548" type="curve" smooth="yes"/>
      <point x="183" y="548"/>
      <point x="160" y="525"/>
      <point x="160" y="497" type="curve" smooth="yes"/>
      <point x="160" y="469"/>
      <point x="183" y="446"/>
      <point x="211" y="446" type="curve" smooth="yes"/>
      <point x="269" y="446"/>
      <point x="328" y="489"/>
      <point x="400" y="489" type="curve"/>
    </contour>
    <contour>
      <point x="407" y="493" type="line"/>
      <point x="443" y="555"/>
      <point x="510" y="585"/>
      <point x="539" y="635" type="curve" smooth="yes"/>
      <point x="553" y="659"/>
      <point x="544" y="691"/>
      <point x="520" y="705" type="curve" smooth="yes"/>
      <point x="496" y="719"/>
      <point x="464" y="710"/>
      <point x="450" y="686" type="curve" smooth="yes"/>
      <point x="421" y="636"/>
      <point x="429" y="563"/>
      <point x="393" y="501" type="curve"/>
    </contour>
    <contour>
      <point x="393" y="501" type="line"/>
      <point x="357" y="439"/>
      <point x="290" y="409"/>
      <point x="261" y="359" type="curve" smooth="yes"/>
      <point x="247" y="335"/>
      <point x="256" y="303"/>
      <point x="280" y="289" type="curve" smooth="yes"/>
      <point x="304" y="275"/>
      <point x="336" y="284"/>
      <point x="350" y="308" type="curve" smooth="yes"/>
      <point x="379" y="358"/>
      <point x="371" y="431"/>
      <point x="407" y="493" type="curve"/>
    </contour>
    <contour>
      <point x="393" y="493" type="line"/>
      <point x="429" y="431"/>
      <point x="421" y="358"/>
      <point x="450" y="308" type="curve" smooth="yes"/>
      <point x="464" y="284"/>
      <point x="496" y="275"/>
      <point x="520" y="289" type="curve" smooth="yes"/>
      <point x="544" y="303"/>
      <point x="553" y="335"/>
      <point x="539" y="359" type="curve" smooth="yes"/>
      <point x="510" y="409"/>
      <point x="443" y="439"/>
      <point x="407" y="501" type="curve"/>
    </contour>
    <contour>
      <point x="407" y="501" type="line"/>
      <point x="371" y="563"/>
      <point x="379" y="636"/>
      <point x="350" y="686" type="curve" smooth="yes"/>
      <point x="336" y="710"/>
      <point x="304" y="719"/>
      <point x="280" y="705" type="curve" smooth="yes"/>
      <point x="256" y="691"/>
      <point x="247" y="659"/>
      <point x="261" y="635" type="curve" smooth="yes"/>
      <point x="290" y="585"/>
      <point x="357" y="555"/>
      <point x="393" y="493" type="curve"/>
    </contour>
  </outline>
</glyph>
<glyph name="four3" format="1">
  <advance width="800"/>
  <outline>
    <contour>
      <point x="175" y="210" type="move"/>
      <point x="275" y="290"/>
      <point x="524" y="493"/>
      <point x="524" y="621" type="curve" smooth="yes"/>
      <point x="524" y="663"/>
      <point x="488" y="685"/>
      <point x="456" y="685" type="curve" smooth="yes"/>
      <point x="431" y="685"/>
      <point x="407" y="670"/>
      <point x="407" y="640" type="curve" smooth="yes"/>
      <point x="407" y="613"/>
      <point x="447" y="595"/>
      <point x="450" y="573" type="curve" smooth="yes"/>
      <point x="460" y="479"/>
      <point x="165" y="251"/>
      <point x="126" y="221" type="curve"/>
    </contour>
    <contour>
      <point x="674" y="221" type="line"/>
      <point x="630" y="216"/>
      <point x="517" y="191"/>
      <point x="444" y="191" type="curve" smooth="yes"/>
      <point x="356" y="191" type="line" smooth="yes"/>
      <point x="283" y="191"/>
      <point x="170" y="216"/>
      <point x="126" y="221" type="curve"/>
      <point x="126" y="143" type="line"/>
      <point x="674" y="143" type="line"/>
    </contour>
    <contour>
      <point x="415" y="409" type="curve"/>
      <point x="416" y="0" type="line"/>
      <point x="504" y="0" type="line"/>
      <point x="504" y="518" type="line"/>
      <point x="481" y="482"/>
      <point x="449" y="445"/>
    </contour>
    <contour>
      <point x="347" y="18" type="line"/>
      <point x="390" y="26"/>
      <point x="416" y="47"/>
      <point x="416" y="76" type="curve"/>
      <point x="416" y="0" type="line" smooth="yes"/>
      <point x="347" y="0" type="line" smooth="yes"/>
    </contour>
    <contour>
      <point x="573" y="18" type="line"/>
      <point x="530" y="26"/>
      <point x="504" y="47"/>
      <point x="504" y="76" type="curve"/>
      <point x="504" y="0" type="line" smooth="yes"/>
      <point x="573" y="0" type="line" smooth="yes"/>
    </contour>
  </outline>
</glyph>
<glyph name="h.ver.001" format="1">
  <advance width="800"/>
  <note>
    Version created Thu Nov  2 02:43:41 2017
  </note>
  <outline>
    <contour>
      <point x="433" y="641" type="curve" smooth="yes"/>
      <point x="251" y="0" type="line"/>
      <point x="161" y="0" type="line"/>
      <point x="340" y="631" type="line" smooth="yes"/>
      <point x="364" y="717"/>
      <point x="407" y="750"/>
      <point x="466" y="750" type="curve" smooth="yes"/>
      <point x="513" y="750"/>
      <point x="552" y="718"/>
      <point x="552" y="679" type="curve" smooth="yes"/>
      <point x="553" y="546"/>
      <point x="128" y="303"/>
      <point x="128" y="303" type="curve"/>
      <point x="107" y="331" type="line"/>
      <point x="107" y="331"/>
      <point x="505" y="553"/>
      <point x="507" y="686" type="curve" smooth="yes"/>
      <point x="507" y="703"/>
      <point x="495" y="723"/>
      <point x="480" y="723" type="curve" smooth="yes"/>
      <point x="463" y="723"/>
      <point x="452" y="709"/>
    </contour>
    <contour>
      <point x="614" y="118" type="line" smooth="yes"/>
      <point x="605" y="83"/>
      <point x="618" y="55"/>
      <point x="644" y="55" type="curve" smooth="yes"/>
      <point x="678" y="55"/>
      <point x="724" y="120"/>
      <point x="745" y="199" type="curve"/>
      <point x="782" y="191" type="line"/>
      <point x="764" y="79"/>
      <point x="690" y="-12"/>
      <point x="615" y="-12" type="curve" smooth="yes"/>
      <point x="546" y="-12"/>
      <point x="505" y="46"/>
      <point x="524" y="118" type="curve" smooth="yes"/>
      <point x="590" y="363" type="line" smooth="yes"/>
      <point x="600" y="400"/>
      <point x="582" y="430"/>
      <point x="551" y="430" type="curve" smooth="yes"/>
      <point x="501" y="430"/>
      <point x="417" y="378"/>
      <point x="317" y="265" type="curve"/>
      <point x="297" y="291" type="line"/>
      <point x="420" y="439"/>
      <point x="518" y="511"/>
      <point x="598" y="511" type="curve" smooth="yes"/>
      <point x="665" y="511"/>
      <point x="702" y="445"/>
      <point x="680" y="363" type="curve" smooth="yes"/>
    </contour>
  </outline>
</glyph>
<glyph name="j.ver.001" format="1">
  <advance width="800"/>
  <note>
    Version created Tue Oct 31 01:07:17 2017
  </note>
  <outline>
    <contour>
      <point x="599" y="688" type="curve" smooth="yes"/>
      <point x="599" y="655"/>
      <point x="572" y="628"/>
      <point x="539" y="628" type="curve" smooth="yes"/>
      <point x="506" y="628"/>
      <point x="479" y="655"/>
      <point x="479" y="688" type="curve" smooth="yes"/>
      <point x="479" y="721"/>
      <point x="506" y="748"/>
      <point x="539" y="748" type="curve" smooth="yes"/>
      <point x="572" y="748"/>
      <point x="599" y="721"/>
    </contour>
    <contour>
      <point x="498" y="457" type="curve" smooth="yes"/>
      <point x="487" y="0" type="line" smooth="yes"/>
      <point x="484" y="-118"/>
      <point x="407" y="-182"/>
      <point x="370" y="-182" type="curve" smooth="yes"/>
      <point x="314" y="-182"/>
      <point x="267" y="-151"/>
      <point x="244" y="-125" type="curve" smooth="yes"/>
      <point x="238" y="-119"/>
      <point x="229" y="-116"/>
      <point x="218" y="-116" type="curve" smooth="yes"/>
      <point x="184" y="-116"/>
      <point x="126" y="-142"/>
      <point x="142" y="-160" type="curve" smooth="yes"/>
      <point x="177" y="-199"/>
      <point x="256" y="-220"/>
      <point x="317" y="-220" type="curve" smooth="yes"/>
      <point x="416" y="-220"/>
      <point x="572" y="-127"/>
      <point x="575" y="0" type="curve" smooth="yes"/>
      <point x="586" y="473" type="line" smooth="yes"/>
      <point x="586" y="494"/>
      <point x="567" y="513"/>
      <point x="546" y="513" type="curve" smooth="yes"/>
      <point x="517" y="513" type="line" smooth="yes"/>
      <point x="426" y="513"/>
      <point x="256" y="435"/>
      <point x="256" y="378" type="curve" smooth="yes"/>
      <point x="256" y="354"/>
      <point x="271" y="331"/>
      <point x="302" y="331" type="curve" smooth="yes"/>
      <point x="336" y="331"/>
      <point x="385" y="351"/>
      <point x="385" y="372" type="curve" smooth="yes"/>
      <point x="385" y="405"/>
      <point x="350" y="410"/>
      <point x="375" y="435" type="curve" smooth="yes"/>
      <point x="400" y="460"/>
      <point x="448" y="477"/>
      <point x="475" y="477" type="curve" smooth="yes"/>
      <point x="489" y="477"/>
      <point x="498" y="473"/>
    </contour>
  </outline>
</glyph>
<glyph name="j.ver.002" format="1">
  <advance width="800"/>
  <note>
    Version created Tue Oct 31 01:11:27 2017
  </note>
  <outline>
    <contour>
      <point x="576" y="688" type="curve" smooth="yes"/>
      <point x="576" y="655"/>
      <point x="549" y="628"/>
      <point x="516" y="628" type="curve" smooth="yes"/>
      <point x="483" y="628"/>
      <point x="456" y="655"/>
      <point x="456" y="688" type="curve" smooth="yes"/>
      <point x="456" y="721"/>
      <point x="483" y="748"/>
      <point x="516" y="748" type="curve" smooth="yes"/>
      <point x="549" y="748"/>
      <point x="576" y="721"/>
    </contour>
    <contour>
      <point x="475" y="457" type="curve" smooth="yes"/>
      <point x="475" y="0" type="line" smooth="yes"/>
      <point x="475" y="-118.02354054360926"/>
      <point x="404" y="-192"/>
      <point x="365" y="-192" type="curve" smooth="yes"/>
      <point x="320" y="-192"/>
      <point x="276" y="-166"/>
      <point x="252" y="-143" type="curve" smooth="yes"/>
      <point x="222" y="-115"/>
      <point x="126.42330079328102" y="-143.5291259916013"/>
      <point x="154" y="-178" type="curve" smooth="yes"/>
      <point x="187" y="-219"/>
      <point x="263.0" y="-238.0"/>
      <point x="329" y="-238" type="curve" smooth="yes"/>
      <point x="416.75" y="-238.0"/>
      <point x="563" y="-127.01237168868028"/>
      <point x="563" y="0" type="curve" smooth="yes"/>
      <point x="563" y="473" type="line" smooth="yes"/>
      <point x="563" y="494"/>
      <point x="544" y="513"/>
      <point x="523" y="513" type="curve" smooth="yes"/>
      <point x="494" y="513" type="line" smooth="yes"/>
      <point x="403" y="513"/>
      <point x="233" y="435"/>
      <point x="233" y="378" type="curve" smooth="yes"/>
      <point x="233" y="354"/>
      <point x="248" y="331"/>
      <point x="279" y="331" type="curve" smooth="yes"/>
      <point x="313" y="331"/>
      <point x="362" y="351"/>
      <point x="362" y="372" type="curve" smooth="yes"/>
      <point x="362" y="405"/>
      <point x="327" y="410"/>
      <point x="352" y="435" type="curve" smooth="yes"/>
      <point x="377" y="460"/>
      <point x="425" y="477"/>
      <point x="452" y="477" type="curve" smooth="yes"/>
      <point x="466" y="477"/>
      <point x="475" y="473"/>
    </contour>
  </outline>
</glyph>
<glyph name="k.ver.001" format="1">
  <advance width="800"/>
  <note>
    Version created Thu Nov  2 21:39:06 2017
  </note>
  <outline>
    <contour>
      <point x="364" y="258" type="curve" smooth="yes"/>
      <point x="358" y="263"/>
      <point x="361" y="276"/>
      <point x="369" y="278" type="curve" smooth="yes"/>
      <point x="537" y="314"/>
      <point x="609" y="356"/>
      <point x="609" y="418" type="curve" smooth="yes"/>
      <point x="609" y="460"/>
      <point x="586" y="492"/>
      <point x="549" y="492" type="curve" smooth="yes"/>
      <point x="506" y="492"/>
      <point x="376" y="373"/>
      <point x="330" y="321" type="curve"/>
      <point x="317" y="345" type="line"/>
      <point x="364" y="397"/>
      <point x="484" y="524"/>
      <point x="574" y="524" type="curve" smooth="yes"/>
      <point x="637" y="524"/>
      <point x="701" y="487"/>
      <point x="696" y="421" type="curve" smooth="yes"/>
      <point x="690" y="348"/>
      <point x="562" y="289"/>
      <point x="471" y="267" type="curve"/>
      <point x="540" y="187"/>
      <point x="610" y="66"/>
      <point x="681" y="66" type="curve" smooth="yes"/>
      <point x="726" y="66"/>
      <point x="758" y="120"/>
      <point x="777" y="146" type="curve"/>
      <point x="805" y="134" type="line"/>
      <point x="782" y="88"/>
      <point x="717" y="-12"/>
      <point x="642" y="-12" type="curve" smooth="yes"/>
      <point x="505" y="-12"/>
      <point x="447" y="186"/>
    </contour>
    <contour>
      <point x="432" y="637" type="curve" smooth="yes"/>
      <point x="251.0" y="0.0" type="line"/>
      <point x="161.0" y="0.0" type="line"/>
      <point x="343" y="637" type="line" smooth="yes"/>
      <point x="351" y="666"/>
      <point x="341" y="689"/>
      <point x="320" y="689" type="curve" smooth="yes"/>
      <point x="296" y="689"/>
      <point x="265" y="651"/>
      <point x="226" y="595" type="curve"/>
      <point x="202" y="612" type="line"/>
      <point x="251" y="690"/>
      <point x="313" y="750"/>
      <point x="363" y="750" type="curve" smooth="yes"/>
      <point x="415" y="750"/>
      <point x="451" y="702"/>
    </contour>
  </outline>
</glyph>
<glyph name="l.ver.004" format="1">
  <advance width="800"/>
  <outline>
    <contour>
      <point x="265" y="118" type="curve" smooth="yes"/>
      <point x="410" y="631" type="line" smooth="yes"/>
      <point x="429" y="700"/>
      <point x="499" y="750"/>
      <point x="576" y="750" type="curve" smooth="yes"/>
      <point x="629" y="750"/>
      <point x="672" y="716"/>
      <point x="672" y="673" type="curve" smooth="yes"/>
      <point x="673" y="540"/>
      <point x="198" y="303"/>
      <point x="198" y="303" type="curve"/>
      <point x="177" y="331" type="line"/>
      <point x="177" y="331"/>
      <point x="627" y="547"/>
      <point x="629" y="680" type="curve" smooth="yes"/>
      <point x="629" y="704"/>
      <point x="612" y="723"/>
      <point x="590" y="723" type="curve" smooth="yes"/>
      <point x="555" y="723"/>
      <point x="516" y="686"/>
      <point x="503" y="641" type="curve" smooth="yes"/>
      <point x="355" y="118" type="line" smooth="yes"/>
      <point x="343" y="76"/>
      <point x="373" y="39"/>
      <point x="412" y="39" type="curve" smooth="yes"/>
      <point x="498" y="39"/>
      <point x="580" y="103"/>
      <point x="646" y="194" type="curve"/>
      <point x="678" y="177" type="line"/>
      <point x="604" y="67"/>
      <point x="502" y="-12"/>
      <point x="379" y="-12" type="curve" smooth="yes"/>
      <point x="304" y="-12"/>
      <point x="247" y="53"/>
    </contour>
  </outline>
</glyph>
<glyph name="n.ver.001" format="1">
  <advance width="800"/>
  <note>
    Version created Thu Nov  2 21:45:18 2017
  </note>
  <outline>
    <contour>
      <point x="614" y="118" type="line" smooth="yes"/>
      <point x="605" y="83"/>
      <point x="618" y="55"/>
      <point x="644" y="55" type="curve" smooth="yes"/>
      <point x="678" y="55"/>
      <point x="724" y="120"/>
      <point x="745" y="199" type="curve"/>
      <point x="782" y="191" type="line"/>
      <point x="764" y="79"/>
      <point x="690" y="-12"/>
      <point x="615" y="-12" type="curve" smooth="yes"/>
      <point x="546" y="-12"/>
      <point x="505" y="46"/>
      <point x="524" y="118" type="curve" smooth="yes"/>
      <point x="590" y="363" type="line" smooth="yes"/>
      <point x="600" y="400"/>
      <point x="582" y="430"/>
      <point x="551" y="430" type="curve" smooth="yes"/>
      <point x="501" y="430"/>
      <point x="417" y="378"/>
      <point x="317" y="265" type="curve"/>
      <point x="297" y="291" type="line"/>
      <point x="420" y="439"/>
      <point x="518" y="511"/>
      <point x="598" y="511" type="curve" smooth="yes"/>
      <point x="665" y="511"/>
      <point x="702" y="445"/>
      <point x="680" y="363" type="curve" smooth="yes"/>
    </contour>
    <contour>
      <point x="280" y="425" type="line" smooth="yes"/>
      <point x="292" y="468"/>
      <point x="278" y="482"/>
      <point x="221" y="482" type="curve"/>
      <point x="225" y="501" type="line"/>
      <point x="279" y="502"/>
      <point x="334" y="506"/>
      <point x="378" y="513" type="curve"/>
      <point x="392" y="501" type="line"/>
      <point x="251" y="0" type="line"/>
      <point x="161" y="0" type="line"/>
    </contour>
  </outline>
</glyph>
<glyph name="n.ver.003" format="1">
  <advance width="800"/>
  <note>
    Version created Thu Nov  2 21:45:57 2017
  </note>
  <outline>
    <contour>
      <point x="614" y="118" type="line" smooth="yes"/>
      <point x="605" y="83"/>
      <point x="618" y="55"/>
      <point x="644" y="55" type="curve" smooth="yes"/>
      <point x="678" y="55"/>
      <point x="724" y="120"/>
      <point x="745" y="199" type="curve"/>
      <point x="782" y="191" type="line"/>
      <point x="764" y="79"/>
      <point x="690" y="-12"/>
      <point x="615" y="-12" type="curve" smooth="yes"/>
      <point x="546" y="-12"/>
      <point x="505" y="46"/>
      <point x="524" y="118" type="curve" smooth="yes"/>
      <point x="590" y="363" type="line" smooth="yes"/>
      <point x="600" y="400"/>
      <point x="582" y="430"/>
      <point x="551" y="430" type="curve" smooth="yes"/>
      <point x="501" y="430"/>
      <point x="417" y="378"/>
      <point x="317" y="265" type="curve"/>
      <point x="297" y="291" type="line"/>
      <point x="420" y="439"/>
      <point x="518" y="511"/>
      <point x="598" y="511" type="curve" smooth="yes"/>
      <point x="665" y="511"/>
      <point x="702" y="445"/>
      <point x="680" y="363" type="curve" smooth="yes"/>
    </contour>
    <contour>
      <point x="162" y="-1" type="move" smooth="yes"/>
      <point x="273" y="393" type="line" smooth="yes"/>
      <point x="281" y="422"/>
      <point x="271" y="445"/>
      <point x="250" y="445" type="curve" smooth="yes"/>
      <point x="226" y="445"/>
      <point x="195" y="407"/>
      <point x="156" y="351" type="curve"/>
      <point x="132" y="368" type="line"/>
      <point x="181" y="446"/>
      <point x="243" y="511"/>
      <point x="293" y="511" type="curve" smooth="yes"/>
      <point x="345" y="511"/>
      <point x="380" y="461"/>
      <point x="362" y="398" type="curve" smooth="yes"/>
      <point x="250" y="-1" type="line" smooth="yes"/>
    </contour>
  </outline>
</glyph>
<glyph name="s.ver.001" format="1">
  <advance width="800"/>
  <outline>
    <contour>
      <point x="686" y="141" type="curve" smooth="yes"/>
      <point x="686" y="270"/>
      <point x="416" y="313"/>
      <point x="414" y="398" type="curve" smooth="yes"/>
      <point x="413" y="441"/>
      <point x="458" y="476"/>
      <point x="514" y="476" type="curve" smooth="yes"/>
      <point x="586" y="476"/>
      <point x="650" y="425"/>
      <point x="650" y="377" type="curve" smooth="yes"/>
      <point x="650" y="351"/>
      <point x="673" y="330"/>
      <point x="703" y="330" type="curve" smooth="yes"/>
      <point x="729" y="330"/>
      <point x="750" y="353"/>
      <point x="750" y="393" type="curve" smooth="yes"/>
      <point x="750" y="441"/>
      <point x="659" y="511"/>
      <point x="527" y="511" type="curve" smooth="yes"/>
      <point x="426" y="511"/>
      <point x="297" y="433"/>
      <point x="297" y="361" type="curve" smooth="yes"/>
      <point x="297" y="209"/>
      <point x="549" y="211"/>
      <point x="549" y="99" type="curve" smooth="yes"/>
      <point x="549" y="62"/>
      <point x="501" y="25"/>
      <point x="441" y="25" type="curve" smooth="yes"/>
      <point x="371" y="25"/>
      <point x="295" y="70"/>
      <point x="301" y="132" type="curve" smooth="yes"/>
      <point x="304" y="162"/>
      <point x="271" y="192"/>
      <point x="245" y="192" type="curve" smooth="yes"/>
      <point x="203" y="192"/>
      <point x="185" y="162"/>
      <point x="185" y="123" type="curve" smooth="yes"/>
      <point x="185" y="56"/>
      <point x="291" y="-12"/>
      <point x="422" y="-12" type="curve" smooth="yes"/>
      <point x="601" y="-12"/>
      <point x="686" y="73"/>
    </contour>
  </outline>
</glyph>
<glyph name="s.ver.004" format="1">
  <advance width="800"/>
  <note>
    Version created Thu Nov  2 23:18:08 2017
  </note>
  <outline>
    <contour>
      <point x="671" y="141" type="curve" smooth="yes"/>
      <point x="671" y="270"/>
      <point x="411" y="313"/>
      <point x="409" y="398" type="curve" smooth="yes"/>
      <point x="408" y="441"/>
      <point x="458" y="476"/>
      <point x="514" y="476" type="curve" smooth="yes"/>
      <point x="586" y="476"/>
      <point x="650" y="425"/>
      <point x="650" y="377" type="curve" smooth="yes"/>
      <point x="650" y="351"/>
      <point x="673" y="330"/>
      <point x="703" y="330" type="curve" smooth="yes"/>
      <point x="729" y="330"/>
      <point x="750" y="353"/>
      <point x="750" y="393" type="curve" smooth="yes"/>
      <point x="750" y="441"/>
      <point x="659" y="511"/>
      <point x="527" y="511" type="curve" smooth="yes"/>
      <point x="426" y="511"/>
      <point x="328" y="434"/>
      <point x="328" y="362" type="curve" smooth="yes"/>
      <point x="328" y="210"/>
      <point x="568" y="211"/>
      <point x="568" y="99" type="curve" smooth="yes"/>
      <point x="568" y="62"/>
      <point x="501" y="25"/>
      <point x="441" y="25" type="curve" smooth="yes"/>
      <point x="371" y="25"/>
      <point x="299" y="70"/>
      <point x="305" y="132" type="curve" smooth="yes"/>
      <point x="308" y="162"/>
      <point x="275" y="192"/>
      <point x="249" y="192" type="curve" smooth="yes"/>
      <point x="207" y="192"/>
      <point x="189" y="162"/>
      <point x="189" y="123" type="curve" smooth="yes"/>
      <point x="189" y="56"/>
      <point x="291" y="-12"/>
      <point x="422" y="-12" type="curve" smooth="yes"/>
      <point x="601" y="-12"/>
      <point x="671" y="73"/>
    </contour>
  </outline>
</glyph>
<glyph name="s.ver.006" format="1">
  <advance width="800"/>
  <note>
    Version created Thu Nov  2 23:21:02 2017
  </note>
  <outline>
    <contour>
      <point x="674" y="141" type="curve" smooth="yes"/>
      <point x="674" y="270"/>
      <point x="398" y="313"/>
      <point x="396" y="398" type="curve" smooth="yes"/>
      <point x="395" y="441"/>
      <point x="449" y="476"/>
      <point x="505" y="476" type="curve" smooth="yes"/>
      <point x="577" y="476"/>
      <point x="643" y="425"/>
      <point x="643" y="377" type="curve" smooth="yes"/>
      <point x="643" y="351"/>
      <point x="660" y="330"/>
      <point x="690" y="330" type="curve" smooth="yes"/>
      <point x="716" y="330"/>
      <point x="737" y="353"/>
      <point x="737" y="393" type="curve" smooth="yes"/>
      <point x="737" y="441"/>
      <point x="650" y="511"/>
      <point x="518" y="511" type="curve" smooth="yes"/>
      <point x="417" y="511"/>
      <point x="323" y="434"/>
      <point x="323" y="362" type="curve" smooth="yes"/>
      <point x="323" y="210"/>
      <point x="579" y="211"/>
      <point x="579" y="99" type="curve" smooth="yes"/>
      <point x="579" y="62"/>
      <point x="508" y="25"/>
      <point x="448" y="25" type="curve" smooth="yes"/>
      <point x="378" y="25"/>
      <point x="301" y="70"/>
      <point x="307" y="132" type="curve" smooth="yes"/>
      <point x="310" y="162"/>
      <point x="282" y="192"/>
      <point x="256" y="192" type="curve" smooth="yes"/>
      <point x="214" y="192"/>
      <point x="196" y="162"/>
      <point x="196" y="123" type="curve" smooth="yes"/>
      <point x="196" y="56"/>
      <point x="298" y="-12"/>
      <point x="429" y="-12" type="curve" smooth="yes"/>
      <point x="608" y="-12"/>
      <point x="674" y="73"/>
    </contour>
  </outline>
</glyph>
<glyph name="seven1" format="1">
  <advance width="800"/>
  <outline>
    <contour>
      <point x="303" y="623" type="curve" smooth="yes"/>
      <point x="580" y="623" type="line" smooth="yes"/>
      <point x="580" y="660" type="line" smooth="yes"/>
      <point x="114" y="660" type="line" smooth="yes"/>
      <point x="76" y="516" type="line" smooth="yes"/>
      <point x="112" y="516" type="line"/>
      <point x="142" y="611"/>
      <point x="210" y="623"/>
    </contour>
    <contour>
      <point x="353" y="75" type="curve" smooth="yes"/>
      <point x="618" y="585" type="line" smooth="yes"/>
      <point x="633" y="613"/>
      <point x="651" y="635"/>
      <point x="694" y="643" type="curve"/>
      <point x="694" y="660" type="line" smooth="yes"/>
      <point x="553" y="660" type="line" smooth="yes"/>
      <point x="249" y="75" type="line" smooth="yes"/>
      <point x="228" y="35"/>
      <point x="199" y="20"/>
      <point x="152" y="18" type="curve"/>
      <point x="152" y="0" type="line" smooth="yes"/>
      <point x="398" y="0" type="line" smooth="yes"/>
      <point x="398" y="17" type="line"/>
      <point x="349" y="17"/>
      <point x="326" y="23"/>
    </contour>
  </outline>
</glyph>
